<mxfile host="app.diagrams.net" modified="2022-03-15T00:12:44.069Z" agent="5.0 (Windows)" etag="STlzdS-xRsfMH5gwjOnp" version="17.1.2" type="github">
  <diagram id="O6BDOL9TMXepZlHJJKnx" name="15-03">
    <mxGraphModel dx="8118" dy="1900" grid="1" gridSize="10" guides="1" tooltips="1" connect="1" arrows="1" fold="1" page="1" pageScale="1" pageWidth="4681" pageHeight="3300" math="0" shadow="0">
      <root>
        <mxCell id="z1pVsJh44Q6DjmEtcK0G-0" />
        <mxCell id="z1pVsJh44Q6DjmEtcK0G-1" parent="z1pVsJh44Q6DjmEtcK0G-0" />
        <mxCell id="cDWXK2D-OugQWrr7VSTv-0" value="Game" style="swimlane;fontStyle=1;align=center;verticalAlign=top;childLayout=stackLayout;horizontal=1;startSize=26;horizontalStack=0;resizeParent=1;resizeParentMax=0;resizeLast=0;collapsible=1;marginBottom=0;rounded=1;fontFamily=Courier New;fontSize=14;fillColor=#F5AB50;strokeColor=#909090;fontColor=#1A1A1A;" vertex="1" parent="z1pVsJh44Q6DjmEtcK0G-1">
          <mxGeometry x="1500" y="350" width="360" height="258" as="geometry" />
        </mxCell>
        <mxCell id="cDWXK2D-OugQWrr7VSTv-1" value="- characterCards: CharacterCardSet&#xa;" style="text;strokeColor=none;fillColor=none;align=left;verticalAlign=top;spacingLeft=4;spacingRight=4;overflow=hidden;rotatable=0;points=[[0,0.5],[1,0.5]];portConstraint=eastwest;rounded=1;fontFamily=Courier New;fontSize=14;" vertex="1" parent="cDWXK2D-OugQWrr7VSTv-0">
          <mxGeometry y="26" width="360" height="28" as="geometry" />
        </mxCell>
        <mxCell id="cDWXK2D-OugQWrr7VSTv-2" value="- islandField: IslandField" style="text;strokeColor=none;fillColor=none;align=left;verticalAlign=top;spacingLeft=4;spacingRight=4;overflow=hidden;rotatable=0;points=[[0,0.5],[1,0.5]];portConstraint=eastwest;rounded=1;fontFamily=Courier New;fontSize=14;" vertex="1" parent="cDWXK2D-OugQWrr7VSTv-0">
          <mxGeometry y="54" width="360" height="28" as="geometry" />
        </mxCell>
        <mxCell id="cDWXK2D-OugQWrr7VSTv-3" value="- playerBoards: ArrayList&lt;PlayerBoard&gt;" style="text;strokeColor=none;fillColor=none;align=left;verticalAlign=top;spacingLeft=4;spacingRight=4;overflow=hidden;rotatable=0;points=[[0,0.5],[1,0.5]];portConstraint=eastwest;rounded=1;fontFamily=Courier New;fontSize=14;" vertex="1" parent="cDWXK2D-OugQWrr7VSTv-0">
          <mxGeometry y="82" width="360" height="28" as="geometry" />
        </mxCell>
        <mxCell id="cDWXK2D-OugQWrr7VSTv-4" value="- clouds: CloudGroup" style="text;align=left;verticalAlign=top;spacingLeft=4;spacingRight=4;overflow=hidden;rotatable=0;points=[[0,0.5],[1,0.5]];portConstraint=eastwest;rounded=1;fontFamily=Courier New;fontSize=14;" vertex="1" parent="cDWXK2D-OugQWrr7VSTv-0">
          <mxGeometry y="110" width="360" height="28" as="geometry" />
        </mxCell>
        <mxCell id="cDWXK2D-OugQWrr7VSTv-5" value="- studentBag: StudentBag" style="text;strokeColor=none;fillColor=none;align=left;verticalAlign=top;spacingLeft=4;spacingRight=4;overflow=hidden;rotatable=0;points=[[0,0.5],[1,0.5]];portConstraint=eastwest;rounded=1;fontFamily=Courier New;fontSize=14;" vertex="1" parent="cDWXK2D-OugQWrr7VSTv-0">
          <mxGeometry y="138" width="360" height="28" as="geometry" />
        </mxCell>
        <mxCell id="cDWXK2D-OugQWrr7VSTv-6" value="- teachers: TeachersGroup" style="text;strokeColor=none;fillColor=none;align=left;verticalAlign=top;spacingLeft=4;spacingRight=4;overflow=hidden;rotatable=0;points=[[0,0.5],[1,0.5]];portConstraint=eastwest;rounded=1;fontFamily=Courier New;fontSize=14;" vertex="1" parent="cDWXK2D-OugQWrr7VSTv-0">
          <mxGeometry y="166" width="360" height="28" as="geometry" />
        </mxCell>
        <mxCell id="cDWXK2D-OugQWrr7VSTv-7" value="- bank: Bank" style="text;strokeColor=none;fillColor=none;align=left;verticalAlign=top;spacingLeft=4;spacingRight=4;overflow=hidden;rotatable=0;points=[[0,0.5],[1,0.5]];portConstraint=eastwest;rounded=1;fontFamily=Courier New;fontSize=14;" vertex="1" parent="cDWXK2D-OugQWrr7VSTv-0">
          <mxGeometry y="194" width="360" height="28" as="geometry" />
        </mxCell>
        <mxCell id="cDWXK2D-OugQWrr7VSTv-8" value="" style="line;strokeWidth=1;fillColor=none;align=left;verticalAlign=middle;spacingTop=-1;spacingLeft=3;spacingRight=3;rotatable=0;labelPosition=right;points=[];portConstraint=eastwest;rounded=1;fontFamily=Courier New;fontSize=14;labelBackgroundColor=#EEEEEE;strokeColor=#909090;fontColor=#1A1A1A;" vertex="1" parent="cDWXK2D-OugQWrr7VSTv-0">
          <mxGeometry y="222" width="360" height="8" as="geometry" />
        </mxCell>
        <mxCell id="cDWXK2D-OugQWrr7VSTv-9" value="TODO" style="text;align=left;verticalAlign=top;spacingLeft=4;spacingRight=4;overflow=hidden;rotatable=0;points=[[0,0.5],[1,0.5]];portConstraint=eastwest;rounded=1;fontFamily=Courier New;fontSize=14;startSize=26;fillColor=none;" vertex="1" parent="cDWXK2D-OugQWrr7VSTv-0">
          <mxGeometry y="230" width="360" height="28" as="geometry" />
        </mxCell>
        <mxCell id="cDWXK2D-OugQWrr7VSTv-10" style="edgeStyle=orthogonalEdgeStyle;rounded=1;jumpStyle=none;orthogonalLoop=1;jettySize=auto;html=1;exitX=0.5;exitY=0;exitDx=0;exitDy=0;entryX=1;entryY=0.5;entryDx=0;entryDy=0;endArrow=diamondThin;endFill=1;targetPerimeterSpacing=0;strokeWidth=1;endSize=12;fontFamily=Courier New;fontSize=14;labelBackgroundColor=#EEEEEE;strokeColor=#182E3E;fontColor=#1A1A1A;" edge="1" parent="z1pVsJh44Q6DjmEtcK0G-1" source="cDWXK2D-OugQWrr7VSTv-11" target="cDWXK2D-OugQWrr7VSTv-5">
          <mxGeometry relative="1" as="geometry" />
        </mxCell>
        <mxCell id="cDWXK2D-OugQWrr7VSTv-11" value="StudentBag" style="swimlane;fontStyle=1;align=center;verticalAlign=top;childLayout=stackLayout;horizontal=1;startSize=26;horizontalStack=0;resizeParent=1;resizeParentMax=0;resizeLast=0;collapsible=1;marginBottom=0;rounded=1;fontFamily=Courier New;fontSize=14;fillColor=#F5AB50;strokeColor=#909090;fontColor=#1A1A1A;" vertex="1" parent="z1pVsJh44Q6DjmEtcK0G-1">
          <mxGeometry x="2193" y="622" width="340" height="90" as="geometry">
            <mxRectangle x="950" y="346" width="110" height="26" as="alternateBounds" />
          </mxGeometry>
        </mxCell>
        <mxCell id="cDWXK2D-OugQWrr7VSTv-12" value="- mixedStudents: ArrayList&lt;Student&gt;" style="text;strokeColor=none;fillColor=none;align=left;verticalAlign=top;spacingLeft=4;spacingRight=4;overflow=hidden;rotatable=0;points=[[0,0.5],[1,0.5]];portConstraint=eastwest;rounded=1;fontFamily=Courier New;fontSize=14;" vertex="1" parent="cDWXK2D-OugQWrr7VSTv-11">
          <mxGeometry y="26" width="340" height="28" as="geometry" />
        </mxCell>
        <mxCell id="cDWXK2D-OugQWrr7VSTv-13" value="" style="line;strokeWidth=1;fillColor=none;align=left;verticalAlign=middle;spacingTop=-1;spacingLeft=3;spacingRight=3;rotatable=0;labelPosition=right;points=[];portConstraint=eastwest;rounded=1;fontFamily=Courier New;fontSize=14;labelBackgroundColor=#EEEEEE;strokeColor=#909090;fontColor=#1A1A1A;" vertex="1" parent="cDWXK2D-OugQWrr7VSTv-11">
          <mxGeometry y="54" width="340" height="8" as="geometry" />
        </mxCell>
        <mxCell id="cDWXK2D-OugQWrr7VSTv-14" value="+ draw(int): ArrayList&lt;Student&gt;" style="text;strokeColor=none;fillColor=none;align=left;verticalAlign=top;spacingLeft=4;spacingRight=4;overflow=hidden;rotatable=0;points=[[0,0.5],[1,0.5]];portConstraint=eastwest;rounded=1;fontFamily=Courier New;fontSize=14;" vertex="1" parent="cDWXK2D-OugQWrr7VSTv-11">
          <mxGeometry y="62" width="340" height="28" as="geometry" />
        </mxCell>
        <mxCell id="cDWXK2D-OugQWrr7VSTv-15" style="edgeStyle=orthogonalEdgeStyle;rounded=1;orthogonalLoop=1;jettySize=auto;html=1;exitX=0.5;exitY=0;exitDx=0;exitDy=0;entryX=0;entryY=0.5;entryDx=0;entryDy=0;endArrow=diamondThin;endFill=1;targetPerimeterSpacing=0;jumpStyle=none;strokeWidth=1;startSize=6;endSize=12;fontFamily=Courier New;fontSize=14;labelBackgroundColor=#EEEEEE;strokeColor=#182E3E;fontColor=#1A1A1A;" edge="1" parent="z1pVsJh44Q6DjmEtcK0G-1" source="cDWXK2D-OugQWrr7VSTv-16" target="cDWXK2D-OugQWrr7VSTv-3">
          <mxGeometry relative="1" as="geometry" />
        </mxCell>
        <mxCell id="cDWXK2D-OugQWrr7VSTv-16" value="PlayerBoard" style="swimlane;fontStyle=1;align=center;verticalAlign=top;childLayout=stackLayout;horizontal=1;startSize=26;horizontalStack=0;resizeParent=1;resizeParentMax=0;resizeLast=0;collapsible=1;marginBottom=0;rounded=1;fontFamily=Courier New;fontSize=14;fillColor=#F5AB50;strokeColor=#909090;fontColor=#1A1A1A;" vertex="1" parent="z1pVsJh44Q6DjmEtcK0G-1">
          <mxGeometry x="1310" y="620" width="320" height="204" as="geometry" />
        </mxCell>
        <mxCell id="cDWXK2D-OugQWrr7VSTv-17" value="- wallet: Wallet" style="text;align=left;verticalAlign=top;spacingLeft=4;spacingRight=4;overflow=hidden;rotatable=0;points=[[0,0.5],[1,0.5]];portConstraint=eastwest;rounded=1;fontFamily=Courier New;fontSize=14;" vertex="1" parent="cDWXK2D-OugQWrr7VSTv-16">
          <mxGeometry y="26" width="320" height="28" as="geometry" />
        </mxCell>
        <mxCell id="cDWXK2D-OugQWrr7VSTv-18" value="- towerStorage: TowerStorage" style="text;align=left;verticalAlign=top;spacingLeft=4;spacingRight=4;overflow=hidden;rotatable=0;points=[[0,0.5],[1,0.5]];portConstraint=eastwest;rounded=1;fontFamily=Courier New;fontSize=14;" vertex="1" parent="cDWXK2D-OugQWrr7VSTv-16">
          <mxGeometry y="54" width="320" height="28" as="geometry" />
        </mxCell>
        <mxCell id="cDWXK2D-OugQWrr7VSTv-19" value="- assistantsHand: AssistantHand" style="text;align=left;verticalAlign=top;spacingLeft=4;spacingRight=4;overflow=hidden;rotatable=0;points=[[0,0.5],[1,0.5]];portConstraint=eastwest;rounded=1;fontFamily=Courier New;fontSize=14;" vertex="1" parent="cDWXK2D-OugQWrr7VSTv-16">
          <mxGeometry y="82" width="320" height="28" as="geometry" />
        </mxCell>
        <mxCell id="cDWXK2D-OugQWrr7VSTv-20" value="- studentEntrance: StudentEntrance" style="text;align=left;verticalAlign=top;spacingLeft=4;spacingRight=4;overflow=hidden;rotatable=0;points=[[0,0.5],[1,0.5]];portConstraint=eastwest;rounded=1;fontFamily=Courier New;fontSize=14;" vertex="1" parent="cDWXK2D-OugQWrr7VSTv-16">
          <mxGeometry y="110" width="320" height="28" as="geometry" />
        </mxCell>
        <mxCell id="cDWXK2D-OugQWrr7VSTv-21" value="- diningRoom: DiningRoom" style="text;align=left;verticalAlign=top;spacingLeft=4;spacingRight=4;overflow=hidden;rotatable=0;points=[[0,0.5],[1,0.5]];portConstraint=eastwest;rounded=1;fontFamily=Courier New;fontSize=14;" vertex="1" parent="cDWXK2D-OugQWrr7VSTv-16">
          <mxGeometry y="138" width="320" height="28" as="geometry" />
        </mxCell>
        <mxCell id="cDWXK2D-OugQWrr7VSTv-22" value="" style="line;strokeWidth=1;rotatable=0;dashed=0;labelPosition=right;align=left;verticalAlign=middle;spacingTop=0;spacingLeft=6;points=[];portConstraint=eastwest;rounded=1;fontFamily=Courier New;fontSize=14;labelBackgroundColor=#EEEEEE;fillColor=#F5AB50;strokeColor=#909090;fontColor=#1A1A1A;" vertex="1" parent="cDWXK2D-OugQWrr7VSTv-16">
          <mxGeometry y="166" width="320" height="10" as="geometry" />
        </mxCell>
        <mxCell id="cDWXK2D-OugQWrr7VSTv-23" value="TODO" style="text;strokeColor=none;fillColor=none;align=left;verticalAlign=top;spacingLeft=4;spacingRight=4;overflow=hidden;rotatable=0;points=[[0,0.5],[1,0.5]];portConstraint=eastwest;rounded=1;fontFamily=Courier New;fontSize=14;" vertex="1" parent="cDWXK2D-OugQWrr7VSTv-16">
          <mxGeometry y="176" width="320" height="28" as="geometry" />
        </mxCell>
        <mxCell id="cDWXK2D-OugQWrr7VSTv-24" style="edgeStyle=orthogonalEdgeStyle;rounded=1;orthogonalLoop=1;jettySize=auto;html=1;exitX=0.5;exitY=0;exitDx=0;exitDy=0;entryX=1;entryY=0.5;entryDx=0;entryDy=0;endArrow=diamondThin;endFill=1;endSize=12;labelBackgroundColor=#EEEEEE;strokeColor=#182E3E;fontColor=#1A1A1A;" edge="1" parent="z1pVsJh44Q6DjmEtcK0G-1" source="cDWXK2D-OugQWrr7VSTv-25" target="cDWXK2D-OugQWrr7VSTv-84">
          <mxGeometry relative="1" as="geometry" />
        </mxCell>
        <mxCell id="cDWXK2D-OugQWrr7VSTv-25" value="Cloud" style="swimlane;fontStyle=1;align=center;verticalAlign=top;childLayout=stackLayout;horizontal=1;startSize=26;horizontalStack=0;resizeParent=1;resizeParentMax=0;resizeLast=0;collapsible=1;marginBottom=0;rounded=1;fontFamily=Courier New;fontSize=14;fillColor=#F5AB50;strokeColor=#909090;fontColor=#1A1A1A;" vertex="1" parent="z1pVsJh44Q6DjmEtcK0G-1">
          <mxGeometry x="2830" y="644" width="270" height="118" as="geometry" />
        </mxCell>
        <mxCell id="cDWXK2D-OugQWrr7VSTv-26" value="- Students: Student[3]" style="text;align=left;verticalAlign=top;spacingLeft=4;spacingRight=4;overflow=hidden;rotatable=0;points=[[0,0.5],[1,0.5]];portConstraint=eastwest;rounded=1;fontFamily=Courier New;fontSize=14;" vertex="1" parent="cDWXK2D-OugQWrr7VSTv-25">
          <mxGeometry y="26" width="270" height="28" as="geometry" />
        </mxCell>
        <mxCell id="cDWXK2D-OugQWrr7VSTv-27" value="" style="line;strokeWidth=1;align=left;verticalAlign=middle;spacingTop=-1;spacingLeft=3;spacingRight=3;rotatable=0;labelPosition=right;points=[];portConstraint=eastwest;rounded=1;fontFamily=Courier New;fontSize=14;labelBackgroundColor=#EEEEEE;fillColor=#F5AB50;strokeColor=#909090;fontColor=#1A1A1A;" vertex="1" parent="cDWXK2D-OugQWrr7VSTv-25">
          <mxGeometry y="54" width="270" height="8" as="geometry" />
        </mxCell>
        <mxCell id="cDWXK2D-OugQWrr7VSTv-28" value="+ getStudents(): Student[3]" style="text;align=left;verticalAlign=top;spacingLeft=4;spacingRight=4;overflow=hidden;rotatable=0;points=[[0,0.5],[1,0.5]];portConstraint=eastwest;rounded=1;fontFamily=Courier New;fontSize=14;" vertex="1" parent="cDWXK2D-OugQWrr7VSTv-25">
          <mxGeometry y="62" width="270" height="28" as="geometry" />
        </mxCell>
        <mxCell id="cDWXK2D-OugQWrr7VSTv-29" value="+ extractStudents(): Student[3]" style="text;strokeColor=none;fillColor=none;align=left;verticalAlign=top;spacingLeft=4;spacingRight=4;overflow=hidden;rotatable=0;points=[[0,0.5],[1,0.5]];portConstraint=eastwest;rounded=1;fontFamily=Courier New;fontSize=14;" vertex="1" parent="cDWXK2D-OugQWrr7VSTv-25">
          <mxGeometry y="90" width="270" height="28" as="geometry" />
        </mxCell>
        <mxCell id="cDWXK2D-OugQWrr7VSTv-30" style="edgeStyle=orthogonalEdgeStyle;rounded=1;orthogonalLoop=1;jettySize=auto;html=1;exitX=0.75;exitY=0;exitDx=0;exitDy=0;entryX=0;entryY=0.5;entryDx=0;entryDy=0;fontFamily=Courier New;endSize=12;endArrow=diamondThin;endFill=0;fontSize=14;labelBackgroundColor=#EEEEEE;strokeColor=#182E3E;fontColor=#1A1A1A;" edge="1" parent="z1pVsJh44Q6DjmEtcK0G-1" source="cDWXK2D-OugQWrr7VSTv-32" target="cDWXK2D-OugQWrr7VSTv-26">
          <mxGeometry relative="1" as="geometry" />
        </mxCell>
        <mxCell id="cDWXK2D-OugQWrr7VSTv-31" style="edgeStyle=orthogonalEdgeStyle;rounded=1;orthogonalLoop=1;jettySize=auto;html=1;exitX=0.5;exitY=0;exitDx=0;exitDy=0;fontFamily=Courier New;endArrow=diamondThin;endFill=0;endSize=12;fontSize=14;labelBackgroundColor=#EEEEEE;strokeColor=#182E3E;fontColor=#1A1A1A;" edge="1" parent="z1pVsJh44Q6DjmEtcK0G-1" source="cDWXK2D-OugQWrr7VSTv-32" target="cDWXK2D-OugQWrr7VSTv-12">
          <mxGeometry relative="1" as="geometry" />
        </mxCell>
        <mxCell id="cDWXK2D-OugQWrr7VSTv-32" value="Student" style="swimlane;fontStyle=1;align=center;verticalAlign=top;childLayout=stackLayout;horizontal=1;startSize=26;horizontalStack=0;resizeParent=1;resizeParentMax=0;resizeLast=0;collapsible=1;marginBottom=0;rounded=1;fontFamily=Courier New;fontSize=14;fillColor=#F5AB50;strokeColor=#909090;fontColor=#1A1A1A;" vertex="1" parent="z1pVsJh44Q6DjmEtcK0G-1">
          <mxGeometry x="2520" y="762" width="230" height="90" as="geometry" />
        </mxCell>
        <mxCell id="cDWXK2D-OugQWrr7VSTv-33" value="- colour: Colour" style="text;align=left;verticalAlign=top;spacingLeft=4;spacingRight=4;overflow=hidden;rotatable=0;points=[[0,0.5],[1,0.5]];portConstraint=eastwest;rounded=1;fontFamily=Courier New;fontSize=14;" vertex="1" parent="cDWXK2D-OugQWrr7VSTv-32">
          <mxGeometry y="26" width="230" height="28" as="geometry" />
        </mxCell>
        <mxCell id="cDWXK2D-OugQWrr7VSTv-34" value="" style="line;strokeWidth=1;align=left;verticalAlign=middle;spacingTop=-1;spacingLeft=3;spacingRight=3;rotatable=0;labelPosition=right;points=[];portConstraint=eastwest;rounded=1;fontFamily=Courier New;fontSize=14;labelBackgroundColor=#EEEEEE;fillColor=#F5AB50;strokeColor=#909090;fontColor=#1A1A1A;" vertex="1" parent="cDWXK2D-OugQWrr7VSTv-32">
          <mxGeometry y="54" width="230" height="8" as="geometry" />
        </mxCell>
        <mxCell id="cDWXK2D-OugQWrr7VSTv-35" value="+ getColour(): PawnColour" style="text;align=left;verticalAlign=top;spacingLeft=4;spacingRight=4;overflow=hidden;rotatable=0;points=[[0,0.5],[1,0.5]];portConstraint=eastwest;rounded=1;fontFamily=Courier New;fontSize=14;" vertex="1" parent="cDWXK2D-OugQWrr7VSTv-32">
          <mxGeometry y="62" width="230" height="28" as="geometry" />
        </mxCell>
        <mxCell id="cDWXK2D-OugQWrr7VSTv-36" style="edgeStyle=orthogonalEdgeStyle;rounded=1;orthogonalLoop=1;jettySize=auto;html=1;exitX=0.75;exitY=0;exitDx=0;exitDy=0;entryX=0;entryY=0.5;entryDx=0;entryDy=0;fontFamily=Courier New;fontSize=14;endArrow=blockThin;endFill=1;startSize=26;endSize=12;dashed=1;labelBackgroundColor=#EEEEEE;strokeColor=#182E3E;fontColor=#1A1A1A;" edge="1" parent="z1pVsJh44Q6DjmEtcK0G-1" source="cDWXK2D-OugQWrr7VSTv-38" target="cDWXK2D-OugQWrr7VSTv-33">
          <mxGeometry relative="1" as="geometry" />
        </mxCell>
        <mxCell id="cDWXK2D-OugQWrr7VSTv-37" style="edgeStyle=orthogonalEdgeStyle;rounded=1;orthogonalLoop=1;jettySize=auto;html=1;exitX=0.25;exitY=0;exitDx=0;exitDy=0;fontFamily=Courier New;fontSize=14;endArrow=blockThin;endFill=1;startSize=26;endSize=12;dashed=1;labelBackgroundColor=#EEEEEE;strokeColor=#182E3E;fontColor=#1A1A1A;" edge="1" parent="z1pVsJh44Q6DjmEtcK0G-1" source="cDWXK2D-OugQWrr7VSTv-38" target="cDWXK2D-OugQWrr7VSTv-41">
          <mxGeometry relative="1" as="geometry" />
        </mxCell>
        <mxCell id="cDWXK2D-OugQWrr7VSTv-38" value="&lt;p style=&quot;margin: 4px 0px 0px ; text-align: center ; font-size: 14px&quot;&gt;&lt;i style=&quot;font-size: 14px&quot;&gt;&amp;lt;&amp;lt;Enumeration&amp;gt;&amp;gt;&lt;/i&gt;&lt;br style=&quot;font-size: 14px&quot;&gt;&lt;b style=&quot;font-size: 14px&quot;&gt;PawnColour&lt;/b&gt;&lt;/p&gt;&lt;hr style=&quot;font-size: 14px&quot;&gt;&lt;p style=&quot;margin: 0px 0px 0px 4px ; font-size: 14px&quot;&gt;BLUE&lt;/p&gt;&lt;p style=&quot;margin: 0px 0px 0px 4px ; font-size: 14px&quot;&gt;GREEN&lt;/p&gt;&lt;p style=&quot;margin: 0px 0px 0px 4px ; font-size: 14px&quot;&gt;PINK&lt;/p&gt;&lt;p style=&quot;margin: 0px 0px 0px 4px ; font-size: 14px&quot;&gt;RED&lt;/p&gt;&lt;p style=&quot;margin: 0px 0px 0px 4px ; font-size: 14px&quot;&gt;YELLOW&lt;br style=&quot;font-size: 14px&quot;&gt;&lt;/p&gt;" style="verticalAlign=top;align=left;overflow=fill;fontSize=14;fontFamily=Courier New;html=1;rounded=1;fillColor=#F5AB50;strokeColor=#909090;fontColor=#1A1A1A;" vertex="1" parent="z1pVsJh44Q6DjmEtcK0G-1">
          <mxGeometry x="2340" y="916" width="140" height="160" as="geometry" />
        </mxCell>
        <mxCell id="cDWXK2D-OugQWrr7VSTv-39" style="edgeStyle=orthogonalEdgeStyle;rounded=1;orthogonalLoop=1;jettySize=auto;html=1;exitX=0.5;exitY=0;exitDx=0;exitDy=0;entryX=1;entryY=0.5;entryDx=0;entryDy=0;endArrow=diamondThin;endFill=1;endSize=12;labelBackgroundColor=#EEEEEE;strokeColor=#182E3E;fontColor=#1A1A1A;" edge="1" parent="z1pVsJh44Q6DjmEtcK0G-1" source="cDWXK2D-OugQWrr7VSTv-40" target="cDWXK2D-OugQWrr7VSTv-79">
          <mxGeometry relative="1" as="geometry" />
        </mxCell>
        <mxCell id="cDWXK2D-OugQWrr7VSTv-40" value="Teacher" style="swimlane;fontStyle=1;align=center;verticalAlign=top;childLayout=stackLayout;horizontal=1;startSize=26;horizontalStack=0;resizeParent=1;resizeParentMax=0;resizeLast=0;collapsible=1;marginBottom=0;rounded=1;fontFamily=Courier New;fontSize=14;fillColor=#F5AB50;strokeColor=#909090;fontColor=#1A1A1A;" vertex="1" parent="z1pVsJh44Q6DjmEtcK0G-1">
          <mxGeometry x="2000" y="770" width="320" height="146" as="geometry" />
        </mxCell>
        <mxCell id="cDWXK2D-OugQWrr7VSTv-41" value="- colour: Colour" style="text;align=left;verticalAlign=top;spacingLeft=4;spacingRight=4;overflow=hidden;rotatable=0;points=[[0,0.5],[1,0.5]];portConstraint=eastwest;rounded=1;fontFamily=Courier New;fontSize=14;" vertex="1" parent="cDWXK2D-OugQWrr7VSTv-40">
          <mxGeometry y="26" width="320" height="28" as="geometry" />
        </mxCell>
        <mxCell id="cDWXK2D-OugQWrr7VSTv-42" value="- position: PlayerBoard" style="text;align=left;verticalAlign=top;spacingLeft=4;spacingRight=4;overflow=hidden;rotatable=0;points=[[0,0.5],[1,0.5]];portConstraint=eastwest;rounded=1;fontFamily=Courier New;fontSize=14;" vertex="1" parent="cDWXK2D-OugQWrr7VSTv-40">
          <mxGeometry y="54" width="320" height="28" as="geometry" />
        </mxCell>
        <mxCell id="cDWXK2D-OugQWrr7VSTv-43" value="" style="line;strokeWidth=1;align=left;verticalAlign=middle;spacingTop=-1;spacingLeft=3;spacingRight=3;rotatable=0;labelPosition=right;points=[];portConstraint=eastwest;rounded=1;fontFamily=Courier New;fontSize=14;labelBackgroundColor=#EEEEEE;fillColor=#F5AB50;strokeColor=#909090;fontColor=#1A1A1A;" vertex="1" parent="cDWXK2D-OugQWrr7VSTv-40">
          <mxGeometry y="82" width="320" height="8" as="geometry" />
        </mxCell>
        <mxCell id="cDWXK2D-OugQWrr7VSTv-44" value="+ move(TeachersTable): void" style="text;align=left;verticalAlign=top;spacingLeft=4;spacingRight=4;overflow=hidden;rotatable=0;points=[[0,0.5],[1,0.5]];portConstraint=eastwest;rounded=1;fontFamily=Courier New;fontSize=14;" vertex="1" parent="cDWXK2D-OugQWrr7VSTv-40">
          <mxGeometry y="90" width="320" height="28" as="geometry" />
        </mxCell>
        <mxCell id="cDWXK2D-OugQWrr7VSTv-45" value="+ getColour(): PawnColour" style="text;align=left;verticalAlign=top;spacingLeft=4;spacingRight=4;overflow=hidden;rotatable=0;points=[[0,0.5],[1,0.5]];portConstraint=eastwest;rounded=1;fontFamily=Courier New;fontSize=14;" vertex="1" parent="cDWXK2D-OugQWrr7VSTv-40">
          <mxGeometry y="118" width="320" height="28" as="geometry" />
        </mxCell>
        <mxCell id="cDWXK2D-OugQWrr7VSTv-46" style="edgeStyle=orthogonalEdgeStyle;rounded=1;orthogonalLoop=1;jettySize=auto;html=1;exitX=0.5;exitY=0;exitDx=0;exitDy=0;fontFamily=Courier New;fontSize=14;startSize=6;endArrow=diamondThin;endFill=1;endSize=12;labelBackgroundColor=#EEEEEE;strokeColor=#182E3E;fontColor=#1A1A1A;" edge="1" parent="z1pVsJh44Q6DjmEtcK0G-1" source="cDWXK2D-OugQWrr7VSTv-47" target="cDWXK2D-OugQWrr7VSTv-19">
          <mxGeometry relative="1" as="geometry" />
        </mxCell>
        <mxCell id="cDWXK2D-OugQWrr7VSTv-47" value="AssistantsHand" style="swimlane;fontStyle=1;align=center;verticalAlign=top;childLayout=stackLayout;horizontal=1;startSize=26;horizontalStack=0;resizeParent=1;resizeParentMax=0;resizeLast=0;collapsible=1;marginBottom=0;rounded=1;fontFamily=Courier New;fontSize=14;fillColor=#F5AB50;strokeColor=#909090;fontColor=#1A1A1A;" vertex="1" parent="z1pVsJh44Q6DjmEtcK0G-1">
          <mxGeometry x="1050" y="1050" width="340" height="120" as="geometry" />
        </mxCell>
        <mxCell id="cDWXK2D-OugQWrr7VSTv-48" value="- hand: AssistantCard[10]" style="text;align=left;verticalAlign=top;spacingLeft=4;spacingRight=4;overflow=hidden;rotatable=0;points=[[0,0.5],[1,0.5]];portConstraint=eastwest;rounded=1;fontFamily=Courier New;fontSize=14;startSize=26;fillColor=none;" vertex="1" parent="cDWXK2D-OugQWrr7VSTv-47">
          <mxGeometry y="26" width="340" height="28" as="geometry" />
        </mxCell>
        <mxCell id="cDWXK2D-OugQWrr7VSTv-49" value="" style="line;strokeWidth=1;rotatable=0;dashed=0;labelPosition=right;align=left;verticalAlign=middle;spacingTop=0;spacingLeft=6;points=[];portConstraint=eastwest;rounded=1;fontFamily=Courier New;fontSize=14;startSize=26;labelBackgroundColor=#EEEEEE;fillColor=#F5AB50;strokeColor=#909090;fontColor=#1A1A1A;" vertex="1" parent="cDWXK2D-OugQWrr7VSTv-47">
          <mxGeometry y="54" width="340" height="10" as="geometry" />
        </mxCell>
        <mxCell id="cDWXK2D-OugQWrr7VSTv-50" value="+ pickAssistant(int): AssistantCard" style="text;strokeColor=none;fillColor=none;align=left;verticalAlign=top;spacingLeft=4;spacingRight=4;overflow=hidden;rotatable=0;points=[[0,0.5],[1,0.5]];portConstraint=eastwest;rounded=1;fontFamily=Courier New;fontSize=14;startSize=26;" vertex="1" parent="cDWXK2D-OugQWrr7VSTv-47">
          <mxGeometry y="64" width="340" height="28" as="geometry" />
        </mxCell>
        <mxCell id="cDWXK2D-OugQWrr7VSTv-51" value="+ getCards(): ArrayList&lt;AsistantCard&gt;" style="text;align=left;verticalAlign=top;spacingLeft=4;spacingRight=4;overflow=hidden;rotatable=0;points=[[0,0.5],[1,0.5]];portConstraint=eastwest;rounded=1;fontFamily=Courier New;fontSize=14;startSize=26;fillColor=none;" vertex="1" parent="cDWXK2D-OugQWrr7VSTv-47">
          <mxGeometry y="92" width="340" height="28" as="geometry" />
        </mxCell>
        <mxCell id="cDWXK2D-OugQWrr7VSTv-52" style="edgeStyle=orthogonalEdgeStyle;rounded=1;orthogonalLoop=1;jettySize=auto;html=1;exitX=0.5;exitY=0;exitDx=0;exitDy=0;entryX=0;entryY=0.5;entryDx=0;entryDy=0;fontFamily=Courier New;fontSize=14;endArrow=diamondThin;endFill=1;startSize=6;endSize=12;labelBackgroundColor=#EEEEEE;strokeColor=#182E3E;fontColor=#1A1A1A;" edge="1" parent="z1pVsJh44Q6DjmEtcK0G-1" source="cDWXK2D-OugQWrr7VSTv-53" target="cDWXK2D-OugQWrr7VSTv-48">
          <mxGeometry relative="1" as="geometry" />
        </mxCell>
        <mxCell id="cDWXK2D-OugQWrr7VSTv-53" value="AssistantCard" style="swimlane;fontStyle=1;align=center;verticalAlign=top;childLayout=stackLayout;horizontal=1;startSize=26;horizontalStack=0;resizeParent=1;resizeParentMax=0;resizeLast=0;collapsible=1;marginBottom=0;rounded=1;fontFamily=Courier New;fontSize=14;fillColor=#F5AB50;strokeColor=#909090;fontColor=#1A1A1A;" vertex="1" parent="z1pVsJh44Q6DjmEtcK0G-1">
          <mxGeometry x="914" y="1340" width="210" height="148" as="geometry" />
        </mxCell>
        <mxCell id="cDWXK2D-OugQWrr7VSTv-54" value="- assistant: Assistant" style="text;align=left;verticalAlign=top;spacingLeft=4;spacingRight=4;overflow=hidden;rotatable=0;points=[[0,0.5],[1,0.5]];portConstraint=eastwest;rounded=1;fontFamily=Courier New;fontSize=14;startSize=26;fillColor=none;" vertex="1" parent="cDWXK2D-OugQWrr7VSTv-53">
          <mxGeometry y="26" width="210" height="28" as="geometry" />
        </mxCell>
        <mxCell id="cDWXK2D-OugQWrr7VSTv-55" value="- used: bool" style="text;align=left;verticalAlign=top;spacingLeft=4;spacingRight=4;overflow=hidden;rotatable=0;points=[[0,0.5],[1,0.5]];portConstraint=eastwest;rounded=1;fontFamily=Courier New;fontSize=14;startSize=26;fillColor=none;" vertex="1" parent="cDWXK2D-OugQWrr7VSTv-53">
          <mxGeometry y="54" width="210" height="28" as="geometry" />
        </mxCell>
        <mxCell id="cDWXK2D-OugQWrr7VSTv-56" value="" style="line;strokeWidth=1;rotatable=0;dashed=0;labelPosition=right;align=left;verticalAlign=middle;spacingTop=0;spacingLeft=6;points=[];portConstraint=eastwest;rounded=1;fontFamily=Courier New;fontSize=14;startSize=26;labelBackgroundColor=#EEEEEE;fillColor=#F5AB50;strokeColor=#909090;fontColor=#1A1A1A;" vertex="1" parent="cDWXK2D-OugQWrr7VSTv-53">
          <mxGeometry y="82" width="210" height="10" as="geometry" />
        </mxCell>
        <mxCell id="cDWXK2D-OugQWrr7VSTv-57" value="+ getMaxMovement(): int" style="text;strokeColor=none;fillColor=none;align=left;verticalAlign=top;spacingLeft=4;spacingRight=4;overflow=hidden;rotatable=0;points=[[0,0.5],[1,0.5]];portConstraint=eastwest;rounded=1;fontFamily=Courier New;fontSize=14;startSize=26;" vertex="1" parent="cDWXK2D-OugQWrr7VSTv-53">
          <mxGeometry y="92" width="210" height="28" as="geometry" />
        </mxCell>
        <mxCell id="cDWXK2D-OugQWrr7VSTv-58" value="+ getPriority(): int" style="text;align=left;verticalAlign=top;spacingLeft=4;spacingRight=4;overflow=hidden;rotatable=0;points=[[0,0.5],[1,0.5]];portConstraint=eastwest;rounded=1;fontFamily=Courier New;fontSize=14;startSize=26;fillColor=none;" vertex="1" parent="cDWXK2D-OugQWrr7VSTv-53">
          <mxGeometry y="120" width="210" height="28" as="geometry" />
        </mxCell>
        <mxCell id="cDWXK2D-OugQWrr7VSTv-59" style="edgeStyle=orthogonalEdgeStyle;rounded=1;orthogonalLoop=1;jettySize=auto;html=1;entryX=1;entryY=0.5;entryDx=0;entryDy=0;fontFamily=Courier New;fontSize=14;endArrow=blockThin;endFill=1;startSize=6;endSize=12;dashed=1;labelBackgroundColor=#EEEEEE;strokeColor=#182E3E;fontColor=#1A1A1A;" edge="1" parent="z1pVsJh44Q6DjmEtcK0G-1" source="cDWXK2D-OugQWrr7VSTv-60" target="cDWXK2D-OugQWrr7VSTv-54">
          <mxGeometry relative="1" as="geometry">
            <mxPoint x="1240" y="1384" as="sourcePoint" />
          </mxGeometry>
        </mxCell>
        <mxCell id="cDWXK2D-OugQWrr7VSTv-60" value="&lt;p style=&quot;margin: 0px ; margin-top: 4px ; text-align: center&quot;&gt;&lt;i&gt;&amp;lt;&amp;lt;Enumeration&amp;gt;&amp;gt;&lt;/i&gt;&lt;br&gt;&lt;b&gt;Assistant&lt;/b&gt;&lt;br&gt;&lt;/p&gt;&lt;hr size=&quot;1&quot;&gt;&lt;p style=&quot;margin: 0px ; margin-left: 4px&quot;&gt;A01&lt;/p&gt;&lt;p style=&quot;margin: 0px ; margin-left: 4px&quot;&gt;...&lt;/p&gt;&lt;p style=&quot;margin: 0px ; margin-left: 4px&quot;&gt;A10&lt;br&gt;&lt;/p&gt;&lt;hr size=&quot;1&quot;&gt;&lt;p style=&quot;margin: 0px ; margin-left: 4px&quot;&gt;+ getMaxMovement(): int&lt;br&gt;+ getPriority(): int&lt;br&gt;&lt;/p&gt;" style="verticalAlign=top;align=left;overflow=fill;fontSize=14;fontFamily=Courier New;html=1;rounded=1;startSize=26;fillColor=#F5AB50;strokeColor=#909090;fontColor=#1A1A1A;" vertex="1" parent="z1pVsJh44Q6DjmEtcK0G-1">
          <mxGeometry x="1190" y="1220" width="200" height="160" as="geometry" />
        </mxCell>
        <mxCell id="cDWXK2D-OugQWrr7VSTv-61" style="edgeStyle=orthogonalEdgeStyle;rounded=1;orthogonalLoop=1;jettySize=auto;html=1;exitX=0.5;exitY=0;exitDx=0;exitDy=0;entryX=0;entryY=0.5;entryDx=0;entryDy=0;endArrow=diamondThin;endFill=1;endSize=12;labelBackgroundColor=#EEEEEE;strokeColor=#182E3E;fontColor=#1A1A1A;" edge="1" parent="z1pVsJh44Q6DjmEtcK0G-1" source="cDWXK2D-OugQWrr7VSTv-63" target="cDWXK2D-OugQWrr7VSTv-18">
          <mxGeometry relative="1" as="geometry" />
        </mxCell>
        <mxCell id="cDWXK2D-OugQWrr7VSTv-62" style="edgeStyle=orthogonalEdgeStyle;curved=0;rounded=1;orthogonalLoop=1;jettySize=auto;html=1;exitX=0.5;exitY=1;exitDx=0;exitDy=0;endArrow=blockThin;endFill=1;endSize=12;labelBackgroundColor=#EEEEEE;strokeColor=#182E3E;fontColor=#1A1A1A;" edge="1" parent="z1pVsJh44Q6DjmEtcK0G-1" source="cDWXK2D-OugQWrr7VSTv-63" target="cDWXK2D-OugQWrr7VSTv-70">
          <mxGeometry relative="1" as="geometry" />
        </mxCell>
        <mxCell id="cDWXK2D-OugQWrr7VSTv-63" value="TowerStorage" style="swimlane;fontStyle=1;align=center;verticalAlign=top;childLayout=stackLayout;horizontal=1;startSize=26;horizontalStack=0;resizeParent=1;resizeParentMax=0;resizeLast=0;collapsible=1;marginBottom=0;rounded=1;fontFamily=Courier New;fontSize=14;fillColor=#F5AB50;strokeColor=#909090;fontColor=#1A1A1A;" vertex="1" parent="z1pVsJh44Q6DjmEtcK0G-1">
          <mxGeometry x="940" y="732" width="240" height="120" as="geometry" />
        </mxCell>
        <mxCell id="cDWXK2D-OugQWrr7VSTv-64" value="- towers: ArrayList&lt;Tower&gt;" style="text;align=left;verticalAlign=top;spacingLeft=4;spacingRight=4;overflow=hidden;rotatable=0;points=[[0,0.5],[1,0.5]];portConstraint=eastwest;rounded=1;fontFamily=Courier New;fontSize=14;startSize=26;fillColor=none;" vertex="1" parent="cDWXK2D-OugQWrr7VSTv-63">
          <mxGeometry y="26" width="240" height="28" as="geometry" />
        </mxCell>
        <mxCell id="cDWXK2D-OugQWrr7VSTv-65" value="" style="line;strokeWidth=1;rotatable=0;dashed=0;labelPosition=right;align=left;verticalAlign=middle;spacingTop=0;spacingLeft=6;points=[];portConstraint=eastwest;rounded=1;fontFamily=Courier New;fontSize=14;startSize=26;labelBackgroundColor=#EEEEEE;fillColor=#F5AB50;strokeColor=#909090;fontColor=#1A1A1A;" vertex="1" parent="cDWXK2D-OugQWrr7VSTv-63">
          <mxGeometry y="54" width="240" height="10" as="geometry" />
        </mxCell>
        <mxCell id="cDWXK2D-OugQWrr7VSTv-66" value="+ addTower(Tower): void" style="text;strokeColor=none;fillColor=none;align=left;verticalAlign=top;spacingLeft=4;spacingRight=4;overflow=hidden;rotatable=0;points=[[0,0.5],[1,0.5]];portConstraint=eastwest;rounded=1;fontFamily=Courier New;fontSize=14;startSize=26;" vertex="1" parent="cDWXK2D-OugQWrr7VSTv-63">
          <mxGeometry y="64" width="240" height="28" as="geometry" />
        </mxCell>
        <mxCell id="cDWXK2D-OugQWrr7VSTv-67" value="+ extractTower(): Tower" style="text;align=left;verticalAlign=top;spacingLeft=4;spacingRight=4;overflow=hidden;rotatable=0;points=[[0,0.5],[1,0.5]];portConstraint=eastwest;rounded=1;fontFamily=Courier New;fontSize=14;startSize=26;fillColor=none;" vertex="1" parent="cDWXK2D-OugQWrr7VSTv-63">
          <mxGeometry y="92" width="240" height="28" as="geometry" />
        </mxCell>
        <mxCell id="cDWXK2D-OugQWrr7VSTv-68" style="edgeStyle=orthogonalEdgeStyle;rounded=1;orthogonalLoop=1;jettySize=auto;html=1;exitX=0.5;exitY=0;exitDx=0;exitDy=0;entryX=0;entryY=0.5;entryDx=0;entryDy=0;fontFamily=Courier New;fontSize=14;endArrow=diamondThin;endFill=0;startSize=6;endSize=12;labelBackgroundColor=#EEEEEE;strokeColor=#182E3E;fontColor=#1A1A1A;" edge="1" parent="z1pVsJh44Q6DjmEtcK0G-1" source="cDWXK2D-OugQWrr7VSTv-69" target="cDWXK2D-OugQWrr7VSTv-64">
          <mxGeometry relative="1" as="geometry" />
        </mxCell>
        <mxCell id="cDWXK2D-OugQWrr7VSTv-69" value="Tower" style="swimlane;fontStyle=1;align=center;verticalAlign=top;childLayout=stackLayout;horizontal=1;startSize=26;horizontalStack=0;resizeParent=1;resizeParentMax=0;resizeLast=0;collapsible=1;marginBottom=0;rounded=1;fontFamily=Courier New;fontSize=14;fillColor=#F5AB50;strokeColor=#909090;fontColor=#1A1A1A;" vertex="1" parent="z1pVsJh44Q6DjmEtcK0G-1">
          <mxGeometry x="460" y="880" width="243" height="148" as="geometry" />
        </mxCell>
        <mxCell id="cDWXK2D-OugQWrr7VSTv-70" value="- storage: TowerStorage" style="text;align=left;verticalAlign=top;spacingLeft=4;spacingRight=4;overflow=hidden;rotatable=0;points=[[0,0.5],[1,0.5]];portConstraint=eastwest;rounded=1;fontFamily=Courier New;fontSize=14;startSize=26;fillColor=none;" vertex="1" parent="cDWXK2D-OugQWrr7VSTv-69">
          <mxGeometry y="26" width="243" height="28" as="geometry" />
        </mxCell>
        <mxCell id="cDWXK2D-OugQWrr7VSTv-71" value="- colour: TowerColour" style="text;align=left;verticalAlign=top;spacingLeft=4;spacingRight=4;overflow=hidden;rotatable=0;points=[[0,0.5],[1,0.5]];portConstraint=eastwest;rounded=1;fontFamily=Courier New;fontSize=14;startSize=26;fillColor=none;" vertex="1" parent="cDWXK2D-OugQWrr7VSTv-69">
          <mxGeometry y="54" width="243" height="28" as="geometry" />
        </mxCell>
        <mxCell id="cDWXK2D-OugQWrr7VSTv-72" value="" style="line;strokeWidth=1;rotatable=0;dashed=0;labelPosition=right;align=left;verticalAlign=middle;spacingTop=0;spacingLeft=6;points=[];portConstraint=eastwest;rounded=1;fontFamily=Courier New;fontSize=14;startSize=26;labelBackgroundColor=#EEEEEE;fillColor=#F5AB50;strokeColor=#909090;fontColor=#1A1A1A;" vertex="1" parent="cDWXK2D-OugQWrr7VSTv-69">
          <mxGeometry y="82" width="243" height="10" as="geometry" />
        </mxCell>
        <mxCell id="cDWXK2D-OugQWrr7VSTv-73" value="+ getColour(): TowerColour" style="text;align=left;verticalAlign=top;spacingLeft=4;spacingRight=4;overflow=hidden;rotatable=0;points=[[0,0.5],[1,0.5]];portConstraint=eastwest;rounded=1;fontFamily=Courier New;fontSize=14;startSize=26;fillColor=none;" vertex="1" parent="cDWXK2D-OugQWrr7VSTv-69">
          <mxGeometry y="92" width="243" height="28" as="geometry" />
        </mxCell>
        <mxCell id="cDWXK2D-OugQWrr7VSTv-74" value="+ getStorage(): TowerStorage" style="text;align=left;verticalAlign=top;spacingLeft=4;spacingRight=4;overflow=hidden;rotatable=0;points=[[0,0.5],[1,0.5]];portConstraint=eastwest;rounded=1;fontFamily=Courier New;fontSize=14;startSize=26;fillColor=none;" vertex="1" parent="cDWXK2D-OugQWrr7VSTv-69">
          <mxGeometry y="120" width="243" height="28" as="geometry" />
        </mxCell>
        <mxCell id="cDWXK2D-OugQWrr7VSTv-75" style="edgeStyle=orthogonalEdgeStyle;rounded=1;orthogonalLoop=1;jettySize=auto;html=1;fontFamily=Courier New;fontSize=14;endArrow=blockThin;endFill=1;startSize=6;endSize=12;dashed=1;labelBackgroundColor=#EEEEEE;strokeColor=#182E3E;fontColor=#1A1A1A;" edge="1" parent="z1pVsJh44Q6DjmEtcK0G-1" source="cDWXK2D-OugQWrr7VSTv-76" target="cDWXK2D-OugQWrr7VSTv-71">
          <mxGeometry relative="1" as="geometry">
            <mxPoint x="1680" y="1302" as="sourcePoint" />
          </mxGeometry>
        </mxCell>
        <mxCell id="cDWXK2D-OugQWrr7VSTv-76" value="&lt;p style=&quot;margin: 0px ; margin-top: 4px ; text-align: center&quot;&gt;&lt;i&gt;&amp;lt;&amp;lt;Enumeration&amp;gt;&amp;gt;&lt;/i&gt;&lt;br&gt;&lt;b&gt;TowerColour&lt;/b&gt;&lt;br&gt;&lt;/p&gt;&lt;hr size=&quot;1&quot;&gt;&lt;p style=&quot;margin: 0px ; margin-left: 4px&quot;&gt;Black&lt;/p&gt;&lt;p style=&quot;margin: 0px ; margin-left: 4px&quot;&gt;White&lt;br&gt;&lt;/p&gt;&lt;p style=&quot;margin: 0px ; margin-left: 4px&quot;&gt;Gray&lt;br&gt;&lt;/p&gt;" style="verticalAlign=top;align=left;overflow=fill;fontSize=14;fontFamily=Courier New;html=1;rounded=1;startSize=26;fillColor=#F5AB50;strokeColor=#909090;fontColor=#1A1A1A;" vertex="1" parent="z1pVsJh44Q6DjmEtcK0G-1">
          <mxGeometry x="797" y="1020" width="200" height="110" as="geometry" />
        </mxCell>
        <mxCell id="cDWXK2D-OugQWrr7VSTv-77" style="edgeStyle=orthogonalEdgeStyle;rounded=1;orthogonalLoop=1;jettySize=auto;html=1;exitX=0.5;exitY=0;exitDx=0;exitDy=0;entryX=1;entryY=0.5;entryDx=0;entryDy=0;endArrow=diamondThin;endFill=1;endSize=12;labelBackgroundColor=#EEEEEE;strokeColor=#182E3E;fontColor=#1A1A1A;" edge="1" parent="z1pVsJh44Q6DjmEtcK0G-1" source="cDWXK2D-OugQWrr7VSTv-78" target="cDWXK2D-OugQWrr7VSTv-6">
          <mxGeometry relative="1" as="geometry" />
        </mxCell>
        <mxCell id="cDWXK2D-OugQWrr7VSTv-78" value="TeachersGroup" style="swimlane;fontStyle=1;align=center;verticalAlign=top;childLayout=stackLayout;horizontal=1;startSize=26;horizontalStack=0;resizeParent=1;resizeParentMax=0;resizeLast=0;collapsible=1;marginBottom=0;rounded=1;fontFamily=Courier New;fontSize=14;fillColor=#F5AB50;strokeColor=#909090;fontColor=#1A1A1A;" vertex="1" parent="z1pVsJh44Q6DjmEtcK0G-1">
          <mxGeometry x="1810" y="622" width="320" height="92" as="geometry" />
        </mxCell>
        <mxCell id="cDWXK2D-OugQWrr7VSTv-79" value="- teachers: Teacher[5]" style="text;align=left;verticalAlign=top;spacingLeft=4;spacingRight=4;overflow=hidden;rotatable=0;points=[[0,0.5],[1,0.5]];portConstraint=eastwest;rounded=1;fontFamily=Courier New;fontSize=14;" vertex="1" parent="cDWXK2D-OugQWrr7VSTv-78">
          <mxGeometry y="26" width="320" height="28" as="geometry" />
        </mxCell>
        <mxCell id="cDWXK2D-OugQWrr7VSTv-80" value="" style="line;strokeWidth=1;rotatable=0;dashed=0;labelPosition=right;align=left;verticalAlign=middle;spacingTop=0;spacingLeft=6;points=[];portConstraint=eastwest;rounded=1;fontFamily=Courier New;fontSize=14;labelBackgroundColor=#EEEEEE;fillColor=#F5AB50;strokeColor=#909090;fontColor=#1A1A1A;" vertex="1" parent="cDWXK2D-OugQWrr7VSTv-78">
          <mxGeometry y="54" width="320" height="10" as="geometry" />
        </mxCell>
        <mxCell id="cDWXK2D-OugQWrr7VSTv-81" value="+ getTeacher(PawnColour): Teacher" style="text;strokeColor=none;fillColor=none;align=left;verticalAlign=top;spacingLeft=4;spacingRight=4;overflow=hidden;rotatable=0;points=[[0,0.5],[1,0.5]];portConstraint=eastwest;rounded=1;fontFamily=Courier New;fontSize=14;" vertex="1" parent="cDWXK2D-OugQWrr7VSTv-78">
          <mxGeometry y="64" width="320" height="28" as="geometry" />
        </mxCell>
        <mxCell id="cDWXK2D-OugQWrr7VSTv-82" style="edgeStyle=orthogonalEdgeStyle;rounded=1;orthogonalLoop=1;jettySize=auto;html=1;exitX=0.5;exitY=0;exitDx=0;exitDy=0;entryX=1;entryY=0.5;entryDx=0;entryDy=0;endArrow=diamondThin;endFill=1;endSize=12;labelBackgroundColor=#EEEEEE;strokeColor=#182E3E;fontColor=#1A1A1A;" edge="1" parent="z1pVsJh44Q6DjmEtcK0G-1" source="cDWXK2D-OugQWrr7VSTv-83" target="cDWXK2D-OugQWrr7VSTv-4">
          <mxGeometry relative="1" as="geometry" />
        </mxCell>
        <mxCell id="cDWXK2D-OugQWrr7VSTv-83" value="CloudGroup" style="swimlane;fontStyle=1;align=center;verticalAlign=top;childLayout=stackLayout;horizontal=1;startSize=26;horizontalStack=0;resizeParent=1;resizeParentMax=0;resizeLast=0;collapsible=1;marginBottom=0;rounded=1;fontFamily=Courier New;fontSize=14;fillColor=#F5AB50;strokeColor=#909090;fontColor=#1A1A1A;" vertex="1" parent="z1pVsJh44Q6DjmEtcK0G-1">
          <mxGeometry x="2561" y="494" width="320" height="120" as="geometry" />
        </mxCell>
        <mxCell id="cDWXK2D-OugQWrr7VSTv-84" value="- clouds: ArrayList&lt;Clouds&gt;" style="text;align=left;verticalAlign=top;spacingLeft=4;spacingRight=4;overflow=hidden;rotatable=0;points=[[0,0.5],[1,0.5]];portConstraint=eastwest;rounded=1;fontFamily=Courier New;fontSize=14;" vertex="1" parent="cDWXK2D-OugQWrr7VSTv-83">
          <mxGeometry y="26" width="320" height="28" as="geometry" />
        </mxCell>
        <mxCell id="cDWXK2D-OugQWrr7VSTv-85" value="- studentBag: StudentBag" style="text;align=left;verticalAlign=top;spacingLeft=4;spacingRight=4;overflow=hidden;rotatable=0;points=[[0,0.5],[1,0.5]];portConstraint=eastwest;rounded=1;fontFamily=Courier New;fontSize=14;" vertex="1" parent="cDWXK2D-OugQWrr7VSTv-83">
          <mxGeometry y="54" width="320" height="28" as="geometry" />
        </mxCell>
        <mxCell id="cDWXK2D-OugQWrr7VSTv-86" value="" style="line;strokeWidth=1;rotatable=0;dashed=0;labelPosition=right;align=left;verticalAlign=middle;spacingTop=0;spacingLeft=6;points=[];portConstraint=eastwest;rounded=1;fontFamily=Courier New;fontSize=14;labelBackgroundColor=#EEEEEE;fillColor=#F5AB50;strokeColor=#909090;fontColor=#1A1A1A;" vertex="1" parent="cDWXK2D-OugQWrr7VSTv-83">
          <mxGeometry y="82" width="320" height="10" as="geometry" />
        </mxCell>
        <mxCell id="cDWXK2D-OugQWrr7VSTv-87" value="+ fillClouds(): void" style="text;strokeColor=none;fillColor=none;align=left;verticalAlign=top;spacingLeft=4;spacingRight=4;overflow=hidden;rotatable=0;points=[[0,0.5],[1,0.5]];portConstraint=eastwest;rounded=1;fontFamily=Courier New;fontSize=14;" vertex="1" parent="cDWXK2D-OugQWrr7VSTv-83">
          <mxGeometry y="92" width="320" height="28" as="geometry" />
        </mxCell>
        <mxCell id="cDWXK2D-OugQWrr7VSTv-88" style="edgeStyle=orthogonalEdgeStyle;rounded=1;orthogonalLoop=1;jettySize=auto;html=1;exitX=0;exitY=0.5;exitDx=0;exitDy=0;entryX=0.75;entryY=0;entryDx=0;entryDy=0;endArrow=blockThin;endFill=1;endSize=12;labelBackgroundColor=#EEEEEE;strokeColor=#182E3E;fontColor=#1A1A1A;" edge="1" parent="z1pVsJh44Q6DjmEtcK0G-1" source="cDWXK2D-OugQWrr7VSTv-85" target="cDWXK2D-OugQWrr7VSTv-11">
          <mxGeometry relative="1" as="geometry" />
        </mxCell>
        <mxCell id="cDWXK2D-OugQWrr7VSTv-89" style="edgeStyle=orthogonalEdgeStyle;curved=0;rounded=1;orthogonalLoop=1;jettySize=auto;html=1;exitX=0.5;exitY=0;exitDx=0;exitDy=0;endArrow=diamondThin;endFill=1;endSize=12;labelBackgroundColor=#EEEEEE;strokeColor=#182E3E;fontColor=#1A1A1A;" edge="1" parent="z1pVsJh44Q6DjmEtcK0G-1" source="cDWXK2D-OugQWrr7VSTv-90" target="cDWXK2D-OugQWrr7VSTv-20">
          <mxGeometry relative="1" as="geometry" />
        </mxCell>
        <mxCell id="cDWXK2D-OugQWrr7VSTv-90" value="StudentEntrance" style="swimlane;fontStyle=1;align=center;verticalAlign=top;childLayout=stackLayout;horizontal=1;startSize=26;horizontalStack=0;resizeParent=1;resizeParentMax=0;resizeLast=0;collapsible=1;marginBottom=0;rounded=1;fontFamily=Courier New;fontSize=14;fillColor=#F5AB50;strokeColor=#909090;fontColor=#1A1A1A;" vertex="1" parent="z1pVsJh44Q6DjmEtcK0G-1">
          <mxGeometry x="1790" y="1060" width="320" height="120" as="geometry">
            <mxRectangle x="1490" y="1250" width="160" height="26" as="alternateBounds" />
          </mxGeometry>
        </mxCell>
        <mxCell id="cDWXK2D-OugQWrr7VSTv-91" value="- students: ArrayList&lt;Student&gt;" style="text;align=left;verticalAlign=top;spacingLeft=4;spacingRight=4;overflow=hidden;rotatable=0;points=[[0,0.5],[1,0.5]];portConstraint=eastwest;rounded=1;fontFamily=Courier New;fontSize=14;" vertex="1" parent="cDWXK2D-OugQWrr7VSTv-90">
          <mxGeometry y="26" width="320" height="28" as="geometry" />
        </mxCell>
        <mxCell id="cDWXK2D-OugQWrr7VSTv-92" value="" style="line;strokeWidth=1;rotatable=0;dashed=0;labelPosition=right;align=left;verticalAlign=middle;spacingTop=0;spacingLeft=6;points=[];portConstraint=eastwest;rounded=1;fontFamily=Courier New;fontSize=14;labelBackgroundColor=#EEEEEE;fillColor=#F5AB50;strokeColor=#909090;fontColor=#1A1A1A;" vertex="1" parent="cDWXK2D-OugQWrr7VSTv-90">
          <mxGeometry y="54" width="320" height="10" as="geometry" />
        </mxCell>
        <mxCell id="cDWXK2D-OugQWrr7VSTv-93" value="+ pushStudents(Cloud): void" style="text;strokeColor=none;fillColor=none;align=left;verticalAlign=top;spacingLeft=4;spacingRight=4;overflow=hidden;rotatable=0;points=[[0,0.5],[1,0.5]];portConstraint=eastwest;rounded=1;fontFamily=Courier New;fontSize=14;" vertex="1" parent="cDWXK2D-OugQWrr7VSTv-90">
          <mxGeometry y="64" width="320" height="28" as="geometry" />
        </mxCell>
        <mxCell id="cDWXK2D-OugQWrr7VSTv-94" value="+ extractStudent(PawnColour): Student" style="text;align=left;verticalAlign=top;spacingLeft=4;spacingRight=4;overflow=hidden;rotatable=0;points=[[0,0.5],[1,0.5]];portConstraint=eastwest;rounded=1;fontFamily=Courier New;fontSize=14;" vertex="1" parent="cDWXK2D-OugQWrr7VSTv-90">
          <mxGeometry y="92" width="320" height="28" as="geometry" />
        </mxCell>
        <mxCell id="cDWXK2D-OugQWrr7VSTv-95" style="edgeStyle=orthogonalEdgeStyle;rounded=1;orthogonalLoop=1;jettySize=auto;html=1;exitX=1;exitY=0.5;exitDx=0;exitDy=0;endArrow=diamondThin;endFill=0;endSize=12;labelBackgroundColor=#EEEEEE;strokeColor=#182E3E;fontColor=#1A1A1A;" edge="1" parent="z1pVsJh44Q6DjmEtcK0G-1" source="cDWXK2D-OugQWrr7VSTv-91" target="cDWXK2D-OugQWrr7VSTv-32">
          <mxGeometry relative="1" as="geometry" />
        </mxCell>
        <mxCell id="cDWXK2D-OugQWrr7VSTv-96" style="edgeStyle=orthogonalEdgeStyle;rounded=1;orthogonalLoop=1;jettySize=auto;html=1;exitX=0.5;exitY=0;exitDx=0;exitDy=0;entryX=1;entryY=0.5;entryDx=0;entryDy=0;endSize=12;endArrow=diamondThin;endFill=1;" edge="1" parent="z1pVsJh44Q6DjmEtcK0G-1" source="cDWXK2D-OugQWrr7VSTv-97" target="cDWXK2D-OugQWrr7VSTv-21">
          <mxGeometry relative="1" as="geometry">
            <Array as="points">
              <mxPoint x="1870" y="1200" />
              <mxPoint x="1770" y="1200" />
              <mxPoint x="1770" y="772" />
            </Array>
          </mxGeometry>
        </mxCell>
        <mxCell id="cDWXK2D-OugQWrr7VSTv-97" value="DiningRoom" style="swimlane;fontStyle=1;align=center;verticalAlign=top;childLayout=stackLayout;horizontal=1;startSize=26;horizontalStack=0;resizeParent=1;resizeParentMax=0;resizeLast=0;collapsible=1;marginBottom=0;rounded=1;fontFamily=Courier New;fontSize=14;fillColor=#F5AB50;strokeColor=#909090;fontColor=#1A1A1A;" vertex="1" parent="z1pVsJh44Q6DjmEtcK0G-1">
          <mxGeometry x="1690" y="1280" width="360" height="148" as="geometry" />
        </mxCell>
        <mxCell id="cDWXK2D-OugQWrr7VSTv-98" value="- students: ArrayList&lt;Student&gt;" style="text;align=left;verticalAlign=top;spacingLeft=4;spacingRight=4;overflow=hidden;rotatable=0;points=[[0,0.5],[1,0.5]];portConstraint=eastwest;rounded=1;fontFamily=Courier New;fontSize=14;" vertex="1" parent="cDWXK2D-OugQWrr7VSTv-97">
          <mxGeometry y="26" width="360" height="28" as="geometry" />
        </mxCell>
        <mxCell id="cDWXK2D-OugQWrr7VSTv-99" value="" style="line;strokeWidth=1;rotatable=0;dashed=0;labelPosition=right;align=left;verticalAlign=middle;spacingTop=0;spacingLeft=6;points=[];portConstraint=eastwest;rounded=1;fontFamily=Courier New;fontSize=14;labelBackgroundColor=#EEEEEE;fillColor=#F5AB50;strokeColor=#909090;fontColor=#1A1A1A;" vertex="1" parent="cDWXK2D-OugQWrr7VSTv-97">
          <mxGeometry y="54" width="360" height="10" as="geometry" />
        </mxCell>
        <mxCell id="cDWXK2D-OugQWrr7VSTv-100" value="+ checkCoin(): bool" style="text;align=left;verticalAlign=top;spacingLeft=4;spacingRight=4;overflow=hidden;rotatable=0;points=[[0,0.5],[1,0.5]];portConstraint=eastwest;rounded=1;fontFamily=Courier New;fontSize=14;" vertex="1" parent="cDWXK2D-OugQWrr7VSTv-97">
          <mxGeometry y="64" width="360" height="28" as="geometry" />
        </mxCell>
        <mxCell id="cDWXK2D-OugQWrr7VSTv-101" value="+ pushStudent(Student): void" style="text;align=left;verticalAlign=top;spacingLeft=4;spacingRight=4;overflow=hidden;rotatable=0;points=[[0,0.5],[1,0.5]];portConstraint=eastwest;rounded=1;fontFamily=Courier New;fontSize=14;" vertex="1" parent="cDWXK2D-OugQWrr7VSTv-97">
          <mxGeometry y="92" width="360" height="28" as="geometry" />
        </mxCell>
        <mxCell id="cDWXK2D-OugQWrr7VSTv-102" value="+ countStudents(PawnColour): int" style="text;strokeColor=none;fillColor=none;align=left;verticalAlign=top;spacingLeft=4;spacingRight=4;overflow=hidden;rotatable=0;points=[[0,0.5],[1,0.5]];portConstraint=eastwest;rounded=1;fontFamily=Courier New;fontSize=14;" vertex="1" parent="cDWXK2D-OugQWrr7VSTv-97">
          <mxGeometry y="120" width="360" height="28" as="geometry" />
        </mxCell>
        <mxCell id="cDWXK2D-OugQWrr7VSTv-103" style="edgeStyle=orthogonalEdgeStyle;rounded=1;orthogonalLoop=1;jettySize=auto;html=1;endArrow=diamondThin;endFill=0;endSize=12;entryX=0.25;entryY=0;entryDx=0;entryDy=0;labelBackgroundColor=#EEEEEE;strokeColor=#182E3E;fontColor=#1A1A1A;exitX=1;exitY=0.5;exitDx=0;exitDy=0;" edge="1" parent="z1pVsJh44Q6DjmEtcK0G-1" source="cDWXK2D-OugQWrr7VSTv-98" target="cDWXK2D-OugQWrr7VSTv-32">
          <mxGeometry relative="1" as="geometry">
            <Array as="points">
              <mxPoint x="2500" y="1320" />
              <mxPoint x="2500" y="732" />
              <mxPoint x="2577" y="732" />
            </Array>
            <mxPoint x="2070" y="1460" as="sourcePoint" />
          </mxGeometry>
        </mxCell>
        <mxCell id="cDWXK2D-OugQWrr7VSTv-104" style="edgeStyle=orthogonalEdgeStyle;rounded=1;orthogonalLoop=1;jettySize=auto;html=1;exitX=0.5;exitY=0;exitDx=0;exitDy=0;entryX=0;entryY=0.5;entryDx=0;entryDy=0;endArrow=diamondThin;endFill=1;endSize=12;labelBackgroundColor=#EEEEEE;strokeColor=#182E3E;fontColor=#1A1A1A;" edge="1" parent="z1pVsJh44Q6DjmEtcK0G-1" source="cDWXK2D-OugQWrr7VSTv-105" target="cDWXK2D-OugQWrr7VSTv-2">
          <mxGeometry relative="1" as="geometry" />
        </mxCell>
        <mxCell id="cDWXK2D-OugQWrr7VSTv-105" value="IslandField" style="swimlane;fontStyle=1;align=center;verticalAlign=top;childLayout=stackLayout;horizontal=1;startSize=26;horizontalStack=0;resizeParent=1;resizeParentMax=0;resizeLast=0;collapsible=1;marginBottom=0;rounded=1;fontFamily=Courier New;fontSize=14;fillColor=#F5AB50;strokeColor=#909090;fontColor=#1A1A1A;" vertex="1" parent="z1pVsJh44Q6DjmEtcK0G-1">
          <mxGeometry x="737" y="61" width="350" height="176" as="geometry" />
        </mxCell>
        <mxCell id="cDWXK2D-OugQWrr7VSTv-106" value="- groups: ArrayList&lt;IslandGroup&gt;" style="text;align=left;verticalAlign=top;spacingLeft=4;spacingRight=4;overflow=hidden;rotatable=0;points=[[0,0.5],[1,0.5]];portConstraint=eastwest;rounded=1;fontFamily=Courier New;fontSize=14;" vertex="1" parent="cDWXK2D-OugQWrr7VSTv-105">
          <mxGeometry y="26" width="350" height="28" as="geometry" />
        </mxCell>
        <mxCell id="cDWXK2D-OugQWrr7VSTv-107" value="" style="line;strokeWidth=1;rotatable=0;dashed=0;labelPosition=right;align=left;verticalAlign=middle;spacingTop=0;spacingLeft=6;points=[];portConstraint=eastwest;rounded=1;fontFamily=Courier New;fontSize=14;labelBackgroundColor=#EEEEEE;fillColor=#F5AB50;strokeColor=#909090;fontColor=#1A1A1A;" vertex="1" parent="cDWXK2D-OugQWrr7VSTv-105">
          <mxGeometry y="54" width="350" height="10" as="geometry" />
        </mxCell>
        <mxCell id="cDWXK2D-OugQWrr7VSTv-108" value="+ getNextGroup(IslandGroup): IslandGroup" style="text;strokeColor=none;fillColor=none;align=left;verticalAlign=top;spacingLeft=4;spacingRight=4;overflow=hidden;rotatable=0;points=[[0,0.5],[1,0.5]];portConstraint=eastwest;rounded=1;fontFamily=Courier New;fontSize=14;" vertex="1" parent="cDWXK2D-OugQWrr7VSTv-105">
          <mxGeometry y="64" width="350" height="28" as="geometry" />
        </mxCell>
        <mxCell id="cDWXK2D-OugQWrr7VSTv-109" value="+ getPrevGroup(IslandGroup): IslandGroup" style="text;strokeColor=none;fillColor=none;align=left;verticalAlign=top;spacingLeft=4;spacingRight=4;overflow=hidden;rotatable=0;points=[[0,0.5],[1,0.5]];portConstraint=eastwest;rounded=1;fontFamily=Courier New;fontSize=14;" vertex="1" parent="cDWXK2D-OugQWrr7VSTv-105">
          <mxGeometry y="92" width="350" height="28" as="geometry" />
        </mxCell>
        <mxCell id="cDWXK2D-OugQWrr7VSTv-110" value="+ getGroupIndex(IslandGroup): int" style="text;strokeColor=none;fillColor=none;align=left;verticalAlign=top;spacingLeft=4;spacingRight=4;overflow=hidden;rotatable=0;points=[[0,0.5],[1,0.5]];portConstraint=eastwest;rounded=1;fontFamily=Courier New;fontSize=14;" vertex="1" parent="cDWXK2D-OugQWrr7VSTv-105">
          <mxGeometry y="120" width="350" height="28" as="geometry" />
        </mxCell>
        <mxCell id="cDWXK2D-OugQWrr7VSTv-111" value="+ joinIslandGroups(): void" style="text;align=left;verticalAlign=top;spacingLeft=4;spacingRight=4;overflow=hidden;rotatable=0;points=[[0,0.5],[1,0.5]];portConstraint=eastwest;rounded=1;fontFamily=Courier New;fontSize=14;" vertex="1" parent="cDWXK2D-OugQWrr7VSTv-105">
          <mxGeometry y="148" width="350" height="28" as="geometry" />
        </mxCell>
        <mxCell id="cDWXK2D-OugQWrr7VSTv-112" style="edgeStyle=orthogonalEdgeStyle;rounded=1;orthogonalLoop=1;jettySize=auto;html=1;exitX=0.5;exitY=0;exitDx=0;exitDy=0;endArrow=blockThin;endFill=1;endSize=12;dashed=1;labelBackgroundColor=#EEEEEE;strokeColor=#182E3E;fontColor=#1A1A1A;" edge="1" parent="z1pVsJh44Q6DjmEtcK0G-1">
          <mxGeometry relative="1" as="geometry">
            <mxPoint x="420" y="202" as="targetPoint" />
          </mxGeometry>
        </mxCell>
        <mxCell id="cDWXK2D-OugQWrr7VSTv-113" style="edgeStyle=orthogonalEdgeStyle;rounded=1;orthogonalLoop=1;jettySize=auto;html=1;exitX=0.5;exitY=0;exitDx=0;exitDy=0;entryX=0;entryY=0.5;entryDx=0;entryDy=0;endArrow=diamondThin;endFill=1;endSize=12;labelBackgroundColor=#EEEEEE;strokeColor=#182E3E;fontColor=#1A1A1A;" edge="1" parent="z1pVsJh44Q6DjmEtcK0G-1" source="cDWXK2D-OugQWrr7VSTv-114" target="cDWXK2D-OugQWrr7VSTv-1">
          <mxGeometry relative="1" as="geometry">
            <Array as="points">
              <mxPoint x="1660" y="128" />
              <mxPoint x="1470" y="128" />
              <mxPoint x="1470" y="390" />
            </Array>
          </mxGeometry>
        </mxCell>
        <mxCell id="cDWXK2D-OugQWrr7VSTv-114" value="CharacterCardSet" style="swimlane;fontStyle=1;align=center;verticalAlign=top;childLayout=stackLayout;horizontal=1;startSize=26;horizontalStack=0;resizeParent=1;resizeParentMax=0;resizeLast=0;collapsible=1;marginBottom=0;rounded=1;fontFamily=Courier New;fontSize=14;fillColor=#F5AB50;strokeColor=#909090;fontColor=#1A1A1A;" vertex="1" parent="z1pVsJh44Q6DjmEtcK0G-1">
          <mxGeometry x="1500" y="148" width="320" height="92" as="geometry" />
        </mxCell>
        <mxCell id="cDWXK2D-OugQWrr7VSTv-115" value="- cards: CharacterCard[3]" style="text;align=left;verticalAlign=top;spacingLeft=4;spacingRight=4;overflow=hidden;rotatable=0;points=[[0,0.5],[1,0.5]];portConstraint=eastwest;rounded=1;fontFamily=Courier New;fontSize=14;" vertex="1" parent="cDWXK2D-OugQWrr7VSTv-114">
          <mxGeometry y="26" width="320" height="28" as="geometry" />
        </mxCell>
        <mxCell id="cDWXK2D-OugQWrr7VSTv-116" value="" style="line;strokeWidth=1;rotatable=0;dashed=0;labelPosition=right;align=left;verticalAlign=middle;spacingTop=0;spacingLeft=6;points=[];portConstraint=eastwest;rounded=1;fontFamily=Courier New;fontSize=14;labelBackgroundColor=#EEEEEE;fillColor=#F5AB50;strokeColor=#909090;fontColor=#1A1A1A;" vertex="1" parent="cDWXK2D-OugQWrr7VSTv-114">
          <mxGeometry y="54" width="320" height="10" as="geometry" />
        </mxCell>
        <mxCell id="cDWXK2D-OugQWrr7VSTv-117" value="+ getCards(): ArrayList&lt;CharacterCard&gt;" style="text;strokeColor=none;fillColor=none;align=left;verticalAlign=top;spacingLeft=4;spacingRight=4;overflow=hidden;rotatable=0;points=[[0,0.5],[1,0.5]];portConstraint=eastwest;rounded=1;fontFamily=Courier New;fontSize=14;" vertex="1" parent="cDWXK2D-OugQWrr7VSTv-114">
          <mxGeometry y="64" width="320" height="28" as="geometry" />
        </mxCell>
        <mxCell id="cDWXK2D-OugQWrr7VSTv-118" style="edgeStyle=orthogonalEdgeStyle;rounded=1;orthogonalLoop=1;jettySize=auto;html=1;exitX=0.5;exitY=0;exitDx=0;exitDy=0;dashed=1;endArrow=blockThin;endFill=1;endSize=12;labelBackgroundColor=#EEEEEE;strokeColor=#182E3E;fontColor=#1A1A1A;" edge="1" parent="z1pVsJh44Q6DjmEtcK0G-1" source="cDWXK2D-OugQWrr7VSTv-119" target="cDWXK2D-OugQWrr7VSTv-122">
          <mxGeometry relative="1" as="geometry" />
        </mxCell>
        <mxCell id="cDWXK2D-OugQWrr7VSTv-119" value="&lt;p style=&quot;margin: 4px 0px 0px ; text-align: center ; font-size: 14px&quot;&gt;&lt;i style=&quot;font-size: 14px&quot;&gt;&amp;lt;&amp;lt;Enumeration&amp;gt;&amp;gt;&lt;br&gt;&lt;b&gt;CharacterCardValue&lt;/b&gt;&lt;br&gt;&lt;/i&gt;&lt;/p&gt;&lt;hr style=&quot;font-size: 14px&quot;&gt;&lt;div&gt;C01&lt;/div&gt;&lt;div&gt;...&lt;/div&gt;&lt;div&gt;C12&lt;br&gt;&lt;/div&gt;" style="verticalAlign=top;align=left;overflow=fill;fontSize=14;fontFamily=Courier New;html=1;rounded=1;fillColor=#F5AB50;strokeColor=#909090;fontColor=#1A1A1A;" vertex="1" parent="z1pVsJh44Q6DjmEtcK0G-1">
          <mxGeometry x="1950" y="270" width="160" height="120" as="geometry" />
        </mxCell>
        <mxCell id="cDWXK2D-OugQWrr7VSTv-120" style="edgeStyle=orthogonalEdgeStyle;rounded=1;orthogonalLoop=1;jettySize=auto;html=1;exitX=0.5;exitY=0;exitDx=0;exitDy=0;entryX=1;entryY=0.5;entryDx=0;entryDy=0;endArrow=diamondThin;endFill=0;endSize=12;labelBackgroundColor=#EEEEEE;strokeColor=#182E3E;fontColor=#1A1A1A;" edge="1" parent="z1pVsJh44Q6DjmEtcK0G-1" source="cDWXK2D-OugQWrr7VSTv-121" target="cDWXK2D-OugQWrr7VSTv-115">
          <mxGeometry relative="1" as="geometry" />
        </mxCell>
        <mxCell id="cDWXK2D-OugQWrr7VSTv-121" value="CharacterCard" style="swimlane;fontStyle=1;align=center;verticalAlign=top;childLayout=stackLayout;horizontal=1;startSize=26;horizontalStack=0;resizeParent=1;resizeParentMax=0;resizeLast=0;collapsible=1;marginBottom=0;rounded=1;fontFamily=Courier New;fontSize=14;fillColor=#F5AB50;strokeColor=#909090;fontColor=#1A1A1A;" vertex="1" parent="z1pVsJh44Q6DjmEtcK0G-1">
          <mxGeometry x="2140" y="210" width="320" height="176" as="geometry" />
        </mxCell>
        <mxCell id="cDWXK2D-OugQWrr7VSTv-122" value="- value: CharacterCardValue" style="text;align=left;verticalAlign=top;spacingLeft=4;spacingRight=4;overflow=hidden;rotatable=0;points=[[0,0.5],[1,0.5]];portConstraint=eastwest;rounded=1;fontFamily=Courier New;fontSize=14;" vertex="1" parent="cDWXK2D-OugQWrr7VSTv-121">
          <mxGeometry y="26" width="320" height="28" as="geometry" />
        </mxCell>
        <mxCell id="cDWXK2D-OugQWrr7VSTv-123" value="- cost: int" style="text;align=left;verticalAlign=top;spacingLeft=4;spacingRight=4;overflow=hidden;rotatable=0;points=[[0,0.5],[1,0.5]];portConstraint=eastwest;rounded=1;fontFamily=Courier New;fontSize=14;" vertex="1" parent="cDWXK2D-OugQWrr7VSTv-121">
          <mxGeometry y="54" width="320" height="28" as="geometry" />
        </mxCell>
        <mxCell id="cDWXK2D-OugQWrr7VSTv-124" value="" style="line;strokeWidth=1;rotatable=0;dashed=0;labelPosition=right;align=left;verticalAlign=middle;spacingTop=0;spacingLeft=6;points=[];portConstraint=eastwest;rounded=1;fontFamily=Courier New;fontSize=14;labelBackgroundColor=#EEEEEE;fillColor=#F5AB50;strokeColor=#909090;fontColor=#1A1A1A;" vertex="1" parent="cDWXK2D-OugQWrr7VSTv-121">
          <mxGeometry y="82" width="320" height="10" as="geometry" />
        </mxCell>
        <mxCell id="cDWXK2D-OugQWrr7VSTv-125" value="+ getValue(): CharacterCardValue" style="text;strokeColor=none;fillColor=none;align=left;verticalAlign=top;spacingLeft=4;spacingRight=4;overflow=hidden;rotatable=0;points=[[0,0.5],[1,0.5]];portConstraint=eastwest;rounded=1;fontFamily=Courier New;fontSize=14;" vertex="1" parent="cDWXK2D-OugQWrr7VSTv-121">
          <mxGeometry y="92" width="320" height="28" as="geometry" />
        </mxCell>
        <mxCell id="cDWXK2D-OugQWrr7VSTv-126" value="+ getCost(): int" style="text;strokeColor=none;fillColor=none;align=left;verticalAlign=top;spacingLeft=4;spacingRight=4;overflow=hidden;rotatable=0;points=[[0,0.5],[1,0.5]];portConstraint=eastwest;rounded=1;fontFamily=Courier New;fontSize=14;" vertex="1" parent="cDWXK2D-OugQWrr7VSTv-121">
          <mxGeometry y="120" width="320" height="28" as="geometry" />
        </mxCell>
        <mxCell id="cDWXK2D-OugQWrr7VSTv-127" value="+ increaseCost(): void" style="text;strokeColor=none;fillColor=none;align=left;verticalAlign=top;spacingLeft=4;spacingRight=4;overflow=hidden;rotatable=0;points=[[0,0.5],[1,0.5]];portConstraint=eastwest;rounded=1;fontFamily=Courier New;fontSize=14;" vertex="1" parent="cDWXK2D-OugQWrr7VSTv-121">
          <mxGeometry y="148" width="320" height="28" as="geometry" />
        </mxCell>
        <mxCell id="cDWXK2D-OugQWrr7VSTv-128" style="edgeStyle=orthogonalEdgeStyle;rounded=1;orthogonalLoop=1;jettySize=auto;html=1;entryX=0;entryY=0.5;entryDx=0;entryDy=0;endArrow=diamondThin;endFill=1;endSize=12;exitX=0.5;exitY=0;exitDx=0;exitDy=0;labelBackgroundColor=#EEEEEE;strokeColor=#182E3E;fontColor=#1A1A1A;" edge="1" parent="z1pVsJh44Q6DjmEtcK0G-1" source="cDWXK2D-OugQWrr7VSTv-129" target="cDWXK2D-OugQWrr7VSTv-17">
          <mxGeometry relative="1" as="geometry">
            <mxPoint x="1160" y="560" as="sourcePoint" />
          </mxGeometry>
        </mxCell>
        <mxCell id="cDWXK2D-OugQWrr7VSTv-129" value="Wallet" style="swimlane;fontStyle=1;align=center;verticalAlign=top;childLayout=stackLayout;horizontal=1;startSize=26;horizontalStack=0;resizeParent=1;resizeParentMax=0;resizeLast=0;collapsible=1;marginBottom=0;rounded=1;fontFamily=Courier New;fontSize=14;fillColor=#F5AB50;strokeColor=#909090;fontColor=#1A1A1A;" vertex="1" parent="z1pVsJh44Q6DjmEtcK0G-1">
          <mxGeometry x="914" y="290" width="320" height="204" as="geometry" />
        </mxCell>
        <mxCell id="cDWXK2D-OugQWrr7VSTv-130" value="- coins: int" style="text;align=left;verticalAlign=top;spacingLeft=4;spacingRight=4;overflow=hidden;rotatable=0;points=[[0,0.5],[1,0.5]];portConstraint=eastwest;rounded=1;fontFamily=Courier New;fontSize=14;strokeColor=none;fillColor=none;" vertex="1" parent="cDWXK2D-OugQWrr7VSTv-129">
          <mxGeometry y="26" width="320" height="28" as="geometry" />
        </mxCell>
        <mxCell id="cDWXK2D-OugQWrr7VSTv-131" value="- bank: Bank" style="text;align=left;verticalAlign=top;spacingLeft=4;spacingRight=4;overflow=hidden;rotatable=0;points=[[0,0.5],[1,0.5]];portConstraint=eastwest;rounded=1;fontFamily=Courier New;fontSize=14;strokeColor=none;fillColor=none;" vertex="1" parent="cDWXK2D-OugQWrr7VSTv-129">
          <mxGeometry y="54" width="320" height="28" as="geometry" />
        </mxCell>
        <mxCell id="cDWXK2D-OugQWrr7VSTv-132" value="" style="line;strokeWidth=1;rotatable=0;dashed=0;labelPosition=right;align=left;verticalAlign=middle;spacingTop=0;spacingLeft=6;points=[];portConstraint=eastwest;rounded=1;fontFamily=Courier New;fontSize=14;labelBackgroundColor=#EEEEEE;fillColor=#F5AB50;strokeColor=#909090;fontColor=#1A1A1A;" vertex="1" parent="cDWXK2D-OugQWrr7VSTv-129">
          <mxGeometry y="82" width="320" height="10" as="geometry" />
        </mxCell>
        <mxCell id="cDWXK2D-OugQWrr7VSTv-133" value="+ addCoinFromBank(): void" style="text;strokeColor=none;fillColor=none;align=left;verticalAlign=top;spacingLeft=4;spacingRight=4;overflow=hidden;rotatable=0;points=[[0,0.5],[1,0.5]];portConstraint=eastwest;rounded=1;fontFamily=Courier New;fontSize=14;" vertex="1" parent="cDWXK2D-OugQWrr7VSTv-129">
          <mxGeometry y="92" width="320" height="28" as="geometry" />
        </mxCell>
        <mxCell id="cDWXK2D-OugQWrr7VSTv-134" value="+ getCoinCount(): int" style="text;strokeColor=none;fillColor=none;align=left;verticalAlign=top;spacingLeft=4;spacingRight=4;overflow=hidden;rotatable=0;points=[[0,0.5],[1,0.5]];portConstraint=eastwest;rounded=1;fontFamily=Courier New;fontSize=14;" vertex="1" parent="cDWXK2D-OugQWrr7VSTv-129">
          <mxGeometry y="120" width="320" height="28" as="geometry" />
        </mxCell>
        <mxCell id="cDWXK2D-OugQWrr7VSTv-135" value="+ extractCoins(int): bool" style="text;strokeColor=none;fillColor=none;align=left;verticalAlign=top;spacingLeft=4;spacingRight=4;overflow=hidden;rotatable=0;points=[[0,0.5],[1,0.5]];portConstraint=eastwest;rounded=1;fontFamily=Courier New;fontSize=14;" vertex="1" parent="cDWXK2D-OugQWrr7VSTv-129">
          <mxGeometry y="148" width="320" height="28" as="geometry" />
        </mxCell>
        <mxCell id="cDWXK2D-OugQWrr7VSTv-136" value="+ pay(CharacterCard): bool" style="text;strokeColor=none;fillColor=none;align=left;verticalAlign=top;spacingLeft=4;spacingRight=4;overflow=hidden;rotatable=0;points=[[0,0.5],[1,0.5]];portConstraint=eastwest;rounded=1;fontFamily=Courier New;fontSize=14;" vertex="1" parent="cDWXK2D-OugQWrr7VSTv-129">
          <mxGeometry y="176" width="320" height="28" as="geometry" />
        </mxCell>
        <mxCell id="cDWXK2D-OugQWrr7VSTv-137" value="Bank" style="swimlane;fontStyle=1;align=center;verticalAlign=top;childLayout=stackLayout;horizontal=1;startSize=26;horizontalStack=0;resizeParent=1;resizeParentMax=0;resizeLast=0;collapsible=1;marginBottom=0;rounded=1;fontFamily=Courier New;fontSize=14;fillColor=#F5AB50;strokeColor=#909090;fontColor=#1A1A1A;" vertex="1" parent="z1pVsJh44Q6DjmEtcK0G-1">
          <mxGeometry x="580" y="390" width="320" height="148" as="geometry">
            <mxRectangle x="330" y="620" width="59" height="26" as="alternateBounds" />
          </mxGeometry>
        </mxCell>
        <mxCell id="cDWXK2D-OugQWrr7VSTv-138" value="- coins: int" style="text;align=left;verticalAlign=top;spacingLeft=4;spacingRight=4;overflow=hidden;rotatable=0;points=[[0,0.5],[1,0.5]];portConstraint=eastwest;rounded=1;fontFamily=Courier New;fontSize=14;strokeColor=none;fillColor=none;" vertex="1" parent="cDWXK2D-OugQWrr7VSTv-137">
          <mxGeometry y="26" width="320" height="28" as="geometry" />
        </mxCell>
        <mxCell id="cDWXK2D-OugQWrr7VSTv-139" value="" style="line;strokeWidth=1;rotatable=0;dashed=0;labelPosition=right;align=left;verticalAlign=middle;spacingTop=0;spacingLeft=6;points=[];portConstraint=eastwest;rounded=1;fontFamily=Courier New;fontSize=14;labelBackgroundColor=#EEEEEE;fillColor=#F5AB50;strokeColor=#909090;fontColor=#1A1A1A;" vertex="1" parent="cDWXK2D-OugQWrr7VSTv-137">
          <mxGeometry y="54" width="320" height="10" as="geometry" />
        </mxCell>
        <mxCell id="cDWXK2D-OugQWrr7VSTv-140" value="+ getCoinCount(): int" style="text;strokeColor=none;fillColor=none;align=left;verticalAlign=top;spacingLeft=4;spacingRight=4;overflow=hidden;rotatable=0;points=[[0,0.5],[1,0.5]];portConstraint=eastwest;rounded=1;fontFamily=Courier New;fontSize=14;" vertex="1" parent="cDWXK2D-OugQWrr7VSTv-137">
          <mxGeometry y="64" width="320" height="28" as="geometry" />
        </mxCell>
        <mxCell id="cDWXK2D-OugQWrr7VSTv-141" value="+ extractCoins(int): void" style="text;strokeColor=none;fillColor=none;align=left;verticalAlign=top;spacingLeft=4;spacingRight=4;overflow=hidden;rotatable=0;points=[[0,0.5],[1,0.5]];portConstraint=eastwest;rounded=1;fontFamily=Courier New;fontSize=14;" vertex="1" parent="cDWXK2D-OugQWrr7VSTv-137">
          <mxGeometry y="92" width="320" height="28" as="geometry" />
        </mxCell>
        <mxCell id="cDWXK2D-OugQWrr7VSTv-142" value="+ depositCoins(int): void" style="text;strokeColor=none;fillColor=none;align=left;verticalAlign=top;spacingLeft=4;spacingRight=4;overflow=hidden;rotatable=0;points=[[0,0.5],[1,0.5]];portConstraint=eastwest;rounded=1;fontFamily=Courier New;fontSize=14;" vertex="1" parent="cDWXK2D-OugQWrr7VSTv-137">
          <mxGeometry y="120" width="320" height="28" as="geometry" />
        </mxCell>
        <mxCell id="cDWXK2D-OugQWrr7VSTv-143" style="edgeStyle=orthogonalEdgeStyle;curved=0;rounded=1;orthogonalLoop=1;jettySize=auto;html=1;exitX=0;exitY=0.5;exitDx=0;exitDy=0;endArrow=blockThin;endFill=1;dashed=1;endSize=12;labelBackgroundColor=#EEEEEE;strokeColor=#182E3E;fontColor=#1A1A1A;" edge="1" parent="z1pVsJh44Q6DjmEtcK0G-1" source="cDWXK2D-OugQWrr7VSTv-42" target="cDWXK2D-OugQWrr7VSTv-16">
          <mxGeometry relative="1" as="geometry">
            <Array as="points">
              <mxPoint x="1970" y="838" />
              <mxPoint x="1970" y="722" />
            </Array>
          </mxGeometry>
        </mxCell>
        <mxCell id="cDWXK2D-OugQWrr7VSTv-144" style="edgeStyle=orthogonalEdgeStyle;curved=0;rounded=1;orthogonalLoop=1;jettySize=auto;html=1;exitX=0.5;exitY=0;exitDx=0;exitDy=0;entryX=0;entryY=0.5;entryDx=0;entryDy=0;endArrow=diamondThin;endFill=1;endSize=12;labelBackgroundColor=#EEEEEE;strokeColor=#182E3E;fontColor=#1A1A1A;" edge="1" parent="z1pVsJh44Q6DjmEtcK0G-1" source="cDWXK2D-OugQWrr7VSTv-145" target="cDWXK2D-OugQWrr7VSTv-156">
          <mxGeometry relative="1" as="geometry" />
        </mxCell>
        <mxCell id="cDWXK2D-OugQWrr7VSTv-145" value="Island&#xa;" style="swimlane;fontStyle=1;align=center;verticalAlign=top;childLayout=stackLayout;horizontal=1;startSize=26;horizontalStack=0;resizeParent=1;resizeParentMax=0;resizeLast=0;collapsible=1;marginBottom=0;rounded=1;fontFamily=Courier New;fontSize=14;fillColor=#F5AB50;strokeColor=#909090;fontColor=#1A1A1A;" vertex="1" parent="z1pVsJh44Q6DjmEtcK0G-1">
          <mxGeometry x="-20" y="549" width="415" height="232" as="geometry" />
        </mxCell>
        <mxCell id="cDWXK2D-OugQWrr7VSTv-146" value="- id: int" style="text;align=left;verticalAlign=top;spacingLeft=4;spacingRight=4;overflow=hidden;rotatable=0;points=[[0,0.5],[1,0.5]];portConstraint=eastwest;rounded=1;fontFamily=Courier New;fontSize=14;" vertex="1" parent="cDWXK2D-OugQWrr7VSTv-145">
          <mxGeometry y="26" width="415" height="28" as="geometry" />
        </mxCell>
        <mxCell id="cDWXK2D-OugQWrr7VSTv-147" value="- students: ArrayList&lt;Student&gt;" style="text;align=left;verticalAlign=top;spacingLeft=4;spacingRight=4;overflow=hidden;rotatable=0;points=[[0,0.5],[1,0.5]];portConstraint=eastwest;rounded=1;fontFamily=Courier New;fontSize=14;" vertex="1" parent="cDWXK2D-OugQWrr7VSTv-145">
          <mxGeometry y="54" width="415" height="28" as="geometry" />
        </mxCell>
        <mxCell id="cDWXK2D-OugQWrr7VSTv-148" value="- tower: Optional&lt;Tower&gt;" style="text;align=left;verticalAlign=top;spacingLeft=4;spacingRight=4;overflow=hidden;rotatable=0;points=[[0,0.5],[1,0.5]];portConstraint=eastwest;rounded=1;fontFamily=Courier New;fontSize=14;" vertex="1" parent="cDWXK2D-OugQWrr7VSTv-145">
          <mxGeometry y="82" width="415" height="28" as="geometry" />
        </mxCell>
        <mxCell id="cDWXK2D-OugQWrr7VSTv-149" value="" style="line;strokeWidth=1;rotatable=0;dashed=0;labelPosition=right;align=left;verticalAlign=middle;spacingTop=0;spacingLeft=6;points=[];portConstraint=eastwest;rounded=1;fontFamily=Courier New;fontSize=14;labelBackgroundColor=#EEEEEE;fillColor=#F5AB50;strokeColor=#909090;fontColor=#1A1A1A;" vertex="1" parent="cDWXK2D-OugQWrr7VSTv-145">
          <mxGeometry y="110" width="415" height="10" as="geometry" />
        </mxCell>
        <mxCell id="cDWXK2D-OugQWrr7VSTv-150" value="+ setTower(Tower): Optional&lt;Tower&gt;" style="text;align=left;verticalAlign=top;spacingLeft=4;spacingRight=4;overflow=hidden;rotatable=0;points=[[0,0.5],[1,0.5]];portConstraint=eastwest;rounded=1;fontFamily=Courier New;fontSize=14;" vertex="1" parent="cDWXK2D-OugQWrr7VSTv-145">
          <mxGeometry y="120" width="415" height="28" as="geometry" />
        </mxCell>
        <mxCell id="cDWXK2D-OugQWrr7VSTv-151" value="+ getStudents(): ArrayList&lt;Student&gt;" style="text;align=left;verticalAlign=top;spacingLeft=4;spacingRight=4;overflow=hidden;rotatable=0;points=[[0,0.5],[1,0.5]];portConstraint=eastwest;rounded=1;fontFamily=Courier New;fontSize=14;" vertex="1" parent="cDWXK2D-OugQWrr7VSTv-145">
          <mxGeometry y="148" width="415" height="28" as="geometry" />
        </mxCell>
        <mxCell id="cDWXK2D-OugQWrr7VSTv-152" value="+ addStudent(Student): void" style="text;align=left;verticalAlign=top;spacingLeft=4;spacingRight=4;overflow=hidden;rotatable=0;points=[[0,0.5],[1,0.5]];portConstraint=eastwest;rounded=1;fontFamily=Courier New;fontSize=14;" vertex="1" parent="cDWXK2D-OugQWrr7VSTv-145">
          <mxGeometry y="176" width="415" height="28" as="geometry" />
        </mxCell>
        <mxCell id="cDWXK2D-OugQWrr7VSTv-153" value="+ getInfluencer(): Player" style="text;align=left;verticalAlign=top;spacingLeft=4;spacingRight=4;overflow=hidden;rotatable=0;points=[[0,0.5],[1,0.5]];portConstraint=eastwest;rounded=1;fontFamily=Courier New;fontSize=14;" vertex="1" parent="cDWXK2D-OugQWrr7VSTv-145">
          <mxGeometry y="204" width="415" height="28" as="geometry" />
        </mxCell>
        <mxCell id="cDWXK2D-OugQWrr7VSTv-154" style="edgeStyle=orthogonalEdgeStyle;curved=0;rounded=1;orthogonalLoop=1;jettySize=auto;html=1;exitX=0.5;exitY=0;exitDx=0;exitDy=0;endArrow=diamondThin;endFill=1;endSize=12;labelBackgroundColor=#EEEEEE;strokeColor=#182E3E;fontColor=#1A1A1A;" edge="1" parent="z1pVsJh44Q6DjmEtcK0G-1" source="cDWXK2D-OugQWrr7VSTv-155" target="cDWXK2D-OugQWrr7VSTv-106">
          <mxGeometry relative="1" as="geometry" />
        </mxCell>
        <mxCell id="cDWXK2D-OugQWrr7VSTv-155" value="IslandGroup" style="swimlane;fontStyle=1;align=center;verticalAlign=top;childLayout=stackLayout;horizontal=1;startSize=26;horizontalStack=0;resizeParent=1;resizeParentMax=0;resizeLast=0;collapsible=1;marginBottom=0;rounded=1;fontFamily=Courier New;fontSize=14;fillColor=#F5AB50;strokeColor=#909090;fontColor=#1A1A1A;" vertex="1" parent="z1pVsJh44Q6DjmEtcK0G-1">
          <mxGeometry x="226" y="223" width="415" height="148" as="geometry" />
        </mxCell>
        <mxCell id="cDWXK2D-OugQWrr7VSTv-156" value="- islands: ArrayList&lt;Island&gt;" style="text;align=left;verticalAlign=top;spacingLeft=4;spacingRight=4;overflow=hidden;rotatable=0;points=[[0,0.5],[1,0.5]];portConstraint=eastwest;rounded=1;fontFamily=Courier New;fontSize=14;" vertex="1" parent="cDWXK2D-OugQWrr7VSTv-155">
          <mxGeometry y="26" width="415" height="28" as="geometry" />
        </mxCell>
        <mxCell id="cDWXK2D-OugQWrr7VSTv-157" value="" style="line;strokeWidth=1;rotatable=0;dashed=0;labelPosition=right;align=left;verticalAlign=middle;spacingTop=0;spacingLeft=6;points=[];portConstraint=eastwest;rounded=1;fontFamily=Courier New;fontSize=14;labelBackgroundColor=#EEEEEE;fillColor=#F5AB50;strokeColor=#909090;fontColor=#1A1A1A;" vertex="1" parent="cDWXK2D-OugQWrr7VSTv-155">
          <mxGeometry y="54" width="415" height="10" as="geometry" />
        </mxCell>
        <mxCell id="cDWXK2D-OugQWrr7VSTv-158" value="+ getIslands(): ArrayList&lt;Island&gt;" style="text;align=left;verticalAlign=top;spacingLeft=4;spacingRight=4;overflow=hidden;rotatable=0;points=[[0,0.5],[1,0.5]];portConstraint=eastwest;rounded=1;fontFamily=Courier New;fontSize=14;" vertex="1" parent="cDWXK2D-OugQWrr7VSTv-155">
          <mxGeometry y="64" width="415" height="28" as="geometry" />
        </mxCell>
        <mxCell id="cDWXK2D-OugQWrr7VSTv-159" value="+ swapTowers(TowerStorage): void" style="text;align=left;verticalAlign=top;spacingLeft=4;spacingRight=4;overflow=hidden;rotatable=0;points=[[0,0.5],[1,0.5]];portConstraint=eastwest;rounded=1;fontFamily=Courier New;fontSize=14;" vertex="1" parent="cDWXK2D-OugQWrr7VSTv-155">
          <mxGeometry y="92" width="415" height="28" as="geometry" />
        </mxCell>
        <mxCell id="cDWXK2D-OugQWrr7VSTv-160" value="+ getInfluencer(): TowerColour" style="text;align=left;verticalAlign=top;spacingLeft=4;spacingRight=4;overflow=hidden;rotatable=0;points=[[0,0.5],[1,0.5]];portConstraint=eastwest;rounded=1;fontFamily=Courier New;fontSize=14;" vertex="1" parent="cDWXK2D-OugQWrr7VSTv-155">
          <mxGeometry y="120" width="415" height="28" as="geometry" />
        </mxCell>
        <mxCell id="cDWXK2D-OugQWrr7VSTv-161" style="edgeStyle=orthogonalEdgeStyle;curved=0;rounded=1;orthogonalLoop=1;jettySize=auto;html=1;exitX=0;exitY=0.5;exitDx=0;exitDy=0;endArrow=blockThin;endFill=1;endSize=12;labelBackgroundColor=#EEEEEE;strokeColor=#182E3E;fontColor=#1A1A1A;" edge="1" parent="z1pVsJh44Q6DjmEtcK0G-1" source="cDWXK2D-OugQWrr7VSTv-131" target="cDWXK2D-OugQWrr7VSTv-137">
          <mxGeometry relative="1" as="geometry" />
        </mxCell>
        <mxCell id="cDWXK2D-OugQWrr7VSTv-162" style="edgeStyle=orthogonalEdgeStyle;curved=0;rounded=1;orthogonalLoop=1;jettySize=auto;html=1;exitX=0;exitY=0.5;exitDx=0;exitDy=0;entryX=0.25;entryY=0;entryDx=0;entryDy=0;endArrow=blockThin;endFill=1;endSize=12;labelBackgroundColor=#EEEEEE;strokeColor=#182E3E;fontColor=#1A1A1A;" edge="1" parent="z1pVsJh44Q6DjmEtcK0G-1" source="cDWXK2D-OugQWrr7VSTv-148" target="cDWXK2D-OugQWrr7VSTv-69">
          <mxGeometry relative="1" as="geometry">
            <Array as="points">
              <mxPoint x="-50" y="645" />
              <mxPoint x="-50" y="810" />
              <mxPoint x="521" y="810" />
            </Array>
          </mxGeometry>
        </mxCell>
        <mxCell id="cDWXK2D-OugQWrr7VSTv-163" style="edgeStyle=orthogonalEdgeStyle;curved=0;rounded=1;orthogonalLoop=1;jettySize=auto;html=1;exitX=0;exitY=0.5;exitDx=0;exitDy=0;endArrow=blockThin;endFill=1;endSize=12;labelBackgroundColor=#EEEEEE;strokeColor=#182E3E;fontColor=#1A1A1A;entryX=1;entryY=0;entryDx=0;entryDy=0;" edge="1" parent="z1pVsJh44Q6DjmEtcK0G-1" source="cDWXK2D-OugQWrr7VSTv-147" target="cDWXK2D-OugQWrr7VSTv-32">
          <mxGeometry relative="1" as="geometry">
            <Array as="points">
              <mxPoint x="-80" y="617" />
              <mxPoint x="-80" y="1520" />
              <mxPoint x="2810" y="1520" />
              <mxPoint x="2810" y="730" />
              <mxPoint x="2750" y="730" />
            </Array>
            <mxPoint x="2763" y="785" as="targetPoint" />
          </mxGeometry>
        </mxCell>
        <mxCell id="cDWXK2D-OugQWrr7VSTv-164" style="edgeStyle=orthogonalEdgeStyle;rounded=1;orthogonalLoop=1;jettySize=auto;html=1;exitX=0;exitY=0.5;exitDx=0;exitDy=0;endArrow=none;endFill=0;endSize=6;startArrow=diamondThin;startFill=1;startSize=12;" edge="1" parent="z1pVsJh44Q6DjmEtcK0G-1" source="cDWXK2D-OugQWrr7VSTv-7" target="cDWXK2D-OugQWrr7VSTv-137">
          <mxGeometry relative="1" as="geometry">
            <Array as="points">
              <mxPoint x="740" y="558" />
            </Array>
          </mxGeometry>
        </mxCell>
      </root>
    </mxGraphModel>
  </diagram>
</mxfile>
